<svg id="logo" xmlns="http://www.w3.org/2000/svg" xmlns:xlink="http://www.w3.org/1999/xlink" width="236" height="48" viewBox="0 0 236 48">
  <defs>
    <clipPath id="clip-path">
      <rect id="Rectangle_30" data-name="Rectangle 30" width="236" height="48" fill="none"/>
    </clipPath>
  </defs>
  <g id="Group_68" data-name="Group 68">
    <g id="Group_67" data-name="Group 67" clip-path="url(#clip-path)">
      <rect id="Rectangle_27" data-name="Rectangle 27" width="4.452" height="24.487" rx="0.609" transform="translate(195.741 15.73)" fill="#3e6a45"/>
      <path id="Path_287" data-name="Path 287" d="M184.761,23.949a6.377,6.377,0,0,0-5.1,2.344v-1.17h-.009v-.163a.611.611,0,0,0-.61-.609h-3.233a.611.611,0,0,0-.61.609v22.43a.611.611,0,0,0,.61.609h3.233a.611.611,0,0,0,.61-.609V46.14h.009V38.247a6.309,6.309,0,0,0,5.1,2.378c4.079,0,7.784-3.226,7.784-8.355,0-5.06-3.7-8.321-7.784-8.321m-.85,12.532a4.2,4.2,0,0,1,0-8.388,4.2,4.2,0,0,1,0,8.388" fill="#3e6a45"/>
      <path id="Path_288" data-name="Path 288" d="M219.026,24.351h-3.233a.611.611,0,0,0-.61.609v2.331h0v5.454a3.4,3.4,0,0,1-3.569,3.736c-1.529,0-3.025-1.155-3.025-3.634V26.874h0V24.961a.611.611,0,0,0-.61-.609h-3.233a.611.611,0,0,0-.61.609v8.124c-.033,4.755,2.142,7.54,6.288,7.54,1.564,0,4.079-.917,4.759-2.989V38.8h0v.81a.611.611,0,0,0,.61.609h3.233a.611.611,0,0,0,.61-.609V24.961a.611.611,0,0,0-.61-.609" fill="#3e6a45"/>
      <path id="Path_289" data-name="Path 289" d="M231.264,28.7a.546.546,0,0,0,.529.41h3.2a.546.546,0,0,0,.546-.546l0-.051c-.311-3.322-3.5-4.566-6.23-4.566-3.671,0-6.22,2.31-6.22,4.755,0,1.664.544,3.939,4.623,5.027l2.107.509c1.19.306,1.734.645,1.734,1.325,0,.917-.986,1.562-2.277,1.562a2.174,2.174,0,0,1-2.291-1.483l-.005-.022a.547.547,0,0,0-.526-.4h-3.122a.546.546,0,0,0-.546.546,1.254,1.254,0,0,0,.019.181c.441,3.034,3.446,4.673,6.539,4.673,3.263,0,6.662-1.732,6.662-5.06,0-1.29-.476-3.668-4.283-4.687L229.1,30.2c-.884-.237-1.563-.611-1.563-1.358,0-.815.815-1.393,1.835-1.393a1.789,1.789,0,0,1,1.889,1.245Z" fill="#3e6a45"/>
      <path id="Path_290" data-name="Path 290" d="M37.908,6.255l-6.546,33.7a.992.992,0,0,1-1.164.783L24.4,39.6a.992.992,0,0,1-.786-1.159c.324-1.693,1.032-5.408,1.834-9.571a.992.992,0,0,0-.975-1.179H13.381a.992.992,0,0,1-.992-.992V21.224a.991.991,0,0,1,.992-.991h12.94a1,1,0,0,0,.975-.806c.411-2.132.773-4.073,1.072-5.575A.989.989,0,0,0,27.4,12.67l-16.658-.122a.992.992,0,0,0-.99.86L7.8,28.088a.993.993,0,0,1-1.111.852L.866,28.189a.993.993,0,0,1-.857-1.113L3.051,3.732a.993.993,0,0,1,1.117-.855l6.847.921-.137,1.145,26.062.131a.991.991,0,0,1,.969,1.18" fill="#3e6a45"/>
      <path id="Path_291" data-name="Path 291" d="M75.227,40.648,65.558,28.443a.994.994,0,0,0-1.6.065L55.916,40.554a.994.994,0,0,1-1.379.273l-4.9-3.289a.989.989,0,0,1-.274-1.371C51.6,32.82,60.128,20.044,64.83,12.984A.991.991,0,0,0,64,11.444H44.445a.992.992,0,0,1-.993-.992V4.835a.992.992,0,0,1,.993-.991H78.569A.992.992,0,0,1,79.4,5.386l-9.7,14.52a.993.993,0,0,0,.05,1.168L81.41,35.752a.991.991,0,0,1-.16,1.393l-4.629,3.665a.993.993,0,0,1-1.394-.163" fill="#3e6a45"/>
      <path id="Path_292" data-name="Path 292" d="M122.4,10.717l-3.332,28.945a.992.992,0,0,1-1.1.872l-5.909-.686a.989.989,0,0,1-.873-1.092c.393-3.415,1.715-14.9,2.368-20.4a.985.985,0,0,0-.986-1.1h-8.794a.992.992,0,0,0-.981.845L99.633,39.389a.993.993,0,0,1-1.132.835l-5.826-.889a.993.993,0,0,1-.832-1.126l2.939-19.815a.991.991,0,0,0-.981-1.137H86.412a.991.991,0,0,1-.99-.992V10.6a.991.991,0,0,1,.99-.991h8.826a.992.992,0,0,0,.982-.849L97.372.849A.994.994,0,0,1,98.5.011L104.372.9A.991.991,0,0,1,105.2,2.03l-.966,6.445a.993.993,0,0,0,.982,1.138h16.2a.991.991,0,0,1,.985,1.1" fill="#3e6a45"/>
      <path id="Path_293" data-name="Path 293" d="M129.658,17.93l18.226,1.446a.991.991,0,0,1,.91,1.069l-.479,5.9a.994.994,0,0,1-1.069.908L129.021,25.8a.991.991,0,0,1-.91-1.069l.48-5.9a.991.991,0,0,1,1.067-.908m1.715-15.174,19.517,4.876a.991.991,0,0,1,.722,1.2L150.171,14.6a.994.994,0,0,1-1.207.722L129.45,10.4a.993.993,0,0,1-.721-1.2l1.441-5.723a.993.993,0,0,1,1.2-.72m33.809,12.516,4.082,4.285a.993.993,0,0,1-.037,1.4l-23.067,21.8a.993.993,0,0,1-1.4-.041l-4.044-4.279a.991.991,0,0,1,.04-1.4l23.027-21.8a.993.993,0,0,1,1.4.035" fill="#3e6a45"/>
      <rect id="Rectangle_28" data-name="Rectangle 28" width="5.279" height="5.274" transform="translate(165.483 4.978)" fill="#3e6a45"/>
      <rect id="Rectangle_29" data-name="Rectangle 29" width="5.279" height="5.274" transform="translate(159.507 4.978)" fill="#3e6a45"/>
    </g>
  </g>
</svg>
