<svg id="Component_1_1" data-name="Component 1 – 1" xmlns="http://www.w3.org/2000/svg" width="60" height="60" viewBox="0 0 60 60">
  <defs>
    <style>
      .cls-1 {
        fill: #3e6a45;
      }

      .cls-2 {
        fill: #fff;
      }
    </style>
  </defs>
  <path id="長方形_695_のコピー" data-name="長方形 695 のコピー" class="cls-1" d="M536,110h60v60H536V110Z" transform="translate(-536 -110)"/>
  <path id="Path_300" data-name="Path 300" class="cls-2" d="M-225.5,2116.648l-8.428-8.429a16.877,16.877,0,0,0,3.24-9.962,16.909,16.909,0,0,0-4.984-12.029,17.031,17.031,0,0,0-24.062,0,17.035,17.035,0,0,0,0,24.062,16.9,16.9,0,0,0,12.031,4.984,16.882,16.882,0,0,0,9.961-3.24l8.428,8.429a2.689,2.689,0,0,0,1.908.789,2.688,2.688,0,0,0,1.906-.789A2.7,2.7,0,0,0-225.5,2116.648Zm-30.418-10.173a11.636,11.636,0,0,1,0-16.435,11.581,11.581,0,0,1,8.215-3.4,11.582,11.582,0,0,1,8.219,3.4,11.543,11.543,0,0,1,3.4,8.216,11.539,11.539,0,0,1-3.4,8.218,11.545,11.545,0,0,1-8.217,3.4A11.534,11.534,0,0,1-255.916,2106.475Z" transform="translate(274.707 -2071.251)"/>
</svg>
