<svg xmlns="http://www.w3.org/2000/svg" width="50" height="50" viewBox="0 0 50 50">
  <defs>
    <style>
      .cls-1 {
        fill: #a7a7a7;
      }
    </style>
  </defs>
  <path id="Path_294" data-name="Path 294" class="cls-1" d="M575.065,328.71l-5.924,7.9h9.875a.895.895,0,0,1,0,1.789H567.352a.9.9,0,0,1-.3-.055.88.88,0,0,1-.23-.121l-.008,0c-.011-.009-.016-.021-.027-.03a.9.9,0,0,1-.18-.2.882.882,0,0,1-.052-.1.846.846,0,0,1-.051-.1l-3.888-11.664a.894.894,0,1,1,1.7-.565l3.349,10.044,5.974-7.966a.894.894,0,1,1,1.43,1.074ZM545.58,338.4h17.107a.895.895,0,0,0,0-1.789H545.58a.895.895,0,1,0,0,1.789Zm18.282,20.128a19.914,19.914,0,0,0,3.687,1.774,7.114,7.114,0,1,1-.313,2.086c0-.1.011-.2.016-.3a21.794,21.794,0,0,1-4.96-2.432,21.891,21.891,0,0,1-4.945,2.437c0,.1.015.194.015.292a7.118,7.118,0,1,1-.313-2.086,20.126,20.126,0,0,0,10.017-7.906h-9.529a20.394,20.394,0,0,0,1.833,2.4.894.894,0,1,1-1.334,1.192,22.057,22.057,0,0,1-2.6-3.589h-2.078a13.352,13.352,0,0,1-13.336-13.336V337.5a3,3,0,0,0-2.993-2.993h-1.555a.895.895,0,1,1,0-1.789h1.555a4.788,4.788,0,0,1,4.782,4.782v1.555a11.56,11.56,0,0,0,11.547,11.547H571.24a11.559,11.559,0,0,0,11.547-11.547V337.5a16.23,16.23,0,0,0-16.212-16.212h-7a.895.895,0,1,1,0-1.789h7a18.023,18.023,0,0,1,18,18v1.555A13.351,13.351,0,0,1,571.24,352.4h-2.081A21.927,21.927,0,0,1,563.862,358.527Zm-8.3,4.089a21.849,21.849,0,0,1-4.014.622,1.56,1.56,0,1,1-.066-1.787,20.008,20.008,0,0,0,3.858-.621,5.343,5.343,0,1,0,.222,1.786Zm13.7-1.788a20.029,20.029,0,0,0,3.861.62,1.552,1.552,0,1,1-.07,1.786,21.878,21.878,0,0,1-4.013-.615,5.306,5.306,0,1,0,.222-1.791Z" transform="translate(-534.576 -319.503)"/>
</svg>
