<svg xmlns="http://www.w3.org/2000/svg" xmlns:xlink="http://www.w3.org/1999/xlink" width="65" height="50" viewBox="0 0 65 50">
  <defs>
    <style>
      .cls-1 {
        fill: #a7a7a7;
      }

      .cls-2 {
        clip-path: url(#clip-path);
      }
    </style>
    <clipPath id="clip-path">
      <rect id="Rectangle_21" data-name="Rectangle 21" class="cls-1" width="65" height="50" transform="translate(0 0)"/>
    </clipPath>
  </defs>
  <g id="ベクトルスマートオブジェクト" transform="translate(-451 -113)">
    <g id="ベクトルスマートオブジェクト-2" data-name="ベクトルスマートオブジェクト" transform="translate(451 113)">
      <g id="Group_56" data-name="Group 56">
        <g id="Group_55" data-name="Group 55" class="cls-2">
          <path id="Path_243" data-name="Path 243" class="cls-1" d="M6.175,50a3.971,3.971,0,0,1-2.323-1.511A7.008,7.008,0,0,1,2.82,42.9c.634-2.815,4-4.051,4.14-4.1a1.04,1.04,0,0,1,.693,0c.143.052,3.505,1.288,4.139,4.1.661,2.933-.529,6.489-3.354,7.1L8,48.071c1.578-.344,2.265-2.791,1.824-4.749-.3-1.341-1.825-2.2-2.519-2.524-.695.325-2.214,1.176-2.517,2.524A5.145,5.145,0,0,0,5.465,47.3a1.959,1.959,0,0,0,1.147.768Z"/>
          <path id="Path_244" data-name="Path 244" class="cls-1" d="M21.035,50,20.6,48.071c1.578-.344,2.265-2.791,1.823-4.749-.3-1.341-1.825-2.2-2.519-2.524-.694.325-2.213,1.176-2.516,2.524-.442,1.958.245,4.4,1.823,4.749L18.771,50c-2.825-.615-4.015-4.169-3.355-7.1.634-2.815,4-4.051,4.14-4.1a1.043,1.043,0,0,1,.693,0c.142.052,3.505,1.288,4.139,4.1.66,2.934-.53,6.489-3.355,7.1"/>
          <path id="Path_245" data-name="Path 245" class="cls-1" d="M31.367,50c-2.825-.615-4.015-4.17-3.354-7.1.634-2.814,4-4.05,4.139-4.1a1.043,1.043,0,0,1,.693,0c.142.052,3.505,1.287,4.139,4.1.661,2.934-.53,6.489-3.355,7.1l-.437-1.928c1.578-.344,2.265-2.791,1.824-4.749-.3-1.341-1.825-2.2-2.519-2.524-.695.325-2.214,1.176-2.517,2.524-.441,1.958.245,4.4,1.824,4.749Z"/>
          <path id="Path_246" data-name="Path 246" class="cls-1" d="M32.207,34.2H7.237A7.175,7.175,0,0,1,0,27.1V20.495a1,1,0,0,1,1.007-.987H38.278a1,1,0,0,1,1.008.987v6.763A7.018,7.018,0,0,1,32.207,34.2M2.015,21.483V27.1a5.177,5.177,0,0,0,5.221,5.118h24.97a5.019,5.019,0,0,0,5.063-4.963V21.483Z"/>
          <path id="Path_247" data-name="Path 247" class="cls-1" d="M38.783,25.842l-1.011-1.71c.326-.185,8.058-4.551,14.01-5.224a65.2,65.2,0,0,1,12.316,0,1,1,0,0,1,.9.983v3.357a.979.979,0,0,1-.3.7.936.936,0,0,1-.716.288l-12.283-.049a1.019,1.019,0,0,1-.713-.293.983.983,0,0,1-.292-.7l.014-2.117c-5.358,1.052-11.861,4.725-11.931,4.766m13.939-3.627,10.262.042V20.794a64.53,64.53,0,0,0-10.252,0Z"/>
          <path id="Path_248" data-name="Path 248" class="cls-1" d="M9.361,17.658,7.467,16.98c.018-.046,1.733-4.807-.423-8.378-2.279-3.776.312-7.277,2-8.6l1.26,1.543L9.676.771l.632.769c-.143.114-3.48,2.821-1.529,6.054,2.648,4.387.667,9.834.582,10.064"/>
          <path id="Path_249" data-name="Path 249" class="cls-1" d="M20.59,17.658,18.7,16.98c.018-.046,1.734-4.807-.423-8.378-2.279-3.776.313-7.277,2-8.6L21.537,1.54c-.143.114-3.48,2.821-1.529,6.054,2.648,4.387.667,9.834.582,10.064"/>
          <path id="Path_250" data-name="Path 250" class="cls-1" d="M31.818,17.658l-1.893-.678c.017-.046,1.733-4.807-.423-8.378-2.279-3.776.312-7.277,2-8.6l1.26,1.543L32.133.771l.632.769c-.144.114-3.48,2.821-1.529,6.054,2.648,4.387.667,9.834.582,10.064"/>
        </g>
      </g>
    </g>
  </g>
</svg>
