<svg xmlns="http://www.w3.org/2000/svg" width="28" height="33.496" viewBox="0 0 28 33.496">
  <path id="Path_308" data-name="Path 308" d="M763.2,287.162h-3.834a2.317,2.317,0,0,0,.277-.677l1.414-6.14a1.223,1.223,0,0,0,1.131-1.215v-1.5a1.227,1.227,0,0,0-1.225-1.225h-3.3a1.948,1.948,0,0,0,.139-.388l1.095-4.754a1.223,1.223,0,0,0,1.055-1.208v-1.5a1.226,1.226,0,0,0-1.225-1.225h-16.6a1.226,1.226,0,0,0-1.225,1.225v1.5a1.223,1.223,0,0,0,1.055,1.208l1.1,4.754a1.947,1.947,0,0,0,.138.388h-3.3a1.226,1.226,0,0,0-1.225,1.225v1.5a1.223,1.223,0,0,0,1.131,1.215l1.414,6.141a2.327,2.327,0,0,0,.277.677h-3.834a1.226,1.226,0,0,0-1.225,1.225v1.5A1.223,1.223,0,0,0,737.5,291.1l1.756,7.627a2.717,2.717,0,0,0,.456.984h-.889a.558.558,0,1,0,0,1.116h23.216a.558.558,0,0,0,0-1.116h-.889a2.7,2.7,0,0,0,.455-.984l1.757-7.627a1.223,1.223,0,0,0,1.069-1.209v-1.5A1.226,1.226,0,0,0,763.2,287.162ZM742.02,268.553a.109.109,0,0,1,.108-.108h16.6a.109.109,0,0,1,.108.108v1.5a.109.109,0,0,1-.108.108h-16.6a.109.109,0,0,1-.108-.108Zm10.308,2.726-.209.905H748.74l-.209-.905Zm-8.186,4.486-1.034-4.486h4.278l.286,1.243a1,1,0,0,0,.981.78h3.555a1,1,0,0,0,.98-.78l.286-1.242h4.278l-1.033,4.486a.82.82,0,0,1-.8.639H744.944A.819.819,0,0,1,744.142,275.765Zm-4.358,1.864a.108.108,0,0,1,.108-.108h21.076a.109.109,0,0,1,.108.108v1.5a.109.109,0,0,1-.108.108H739.891a.108.108,0,0,1-.108-.108Zm13.243,2.725-.34,1.452-4.523-.008-.333-1.443Zm-10.727,5.88-1.354-5.88h5.74l.39,1.694a1.12,1.12,0,0,0,1.1.874h4.513a1.12,1.12,0,0,0,1.1-.874l.39-1.694h5.74l-1.354,5.88a1.191,1.191,0,0,1-1.166.928H743.466A1.191,1.191,0,0,1,742.3,286.235Zm-4.753,2.152a.108.108,0,0,1,.108-.108H763.2a.108.108,0,0,1,.108.108v1.5a.109.109,0,0,1-.108.108h-25.55a.109.109,0,0,1-.108-.108Zm16.227,2.726-.443,1.923a.139.139,0,0,1-.135.107h-5.531a.139.139,0,0,1-.135-.107l-.443-1.923Zm6.743,7.36a1.584,1.584,0,0,1-1.551,1.235h-17.07a1.585,1.585,0,0,1-1.551-1.235l-1.7-7.36h7.292l.5,2.173a1.248,1.248,0,0,0,1.223.974H753.2a1.249,1.249,0,0,0,1.223-.974l.5-2.173h7.292Z" transform="translate(-736.43 -267.328)" fill="#3e6a45"/>
</svg>
