<svg xmlns="http://www.w3.org/2000/svg" width="38" height="33.291" viewBox="0 0 38 33.291">
  <path id="Path_304" data-name="Path 304" d="M384.389,270.458c-2.326-.3-4.5-.685-6.8-1.088l-.811-.141v0l.193-1.1h0l.819.143c2.289.4,4.451.779,6.743,1.079h0v0l-.145,1.111Zm30.387-1.224h0c-.694.107-1.391.218-2.065.325l-.079.013c-2.2.349-4.937.783-7.745,1.093v2.909l2.917.118a.564.564,0,0,1,.483.314l4.12,8.411a.563.563,0,0,1-.328.78l-6.2,2.061v15.321a.562.562,0,0,1-.562.561L386,301.15a.566.566,0,0,1-.4-.164.558.558,0,0,1-.165-.4V285.254l-5.959-2.059a.563.563,0,0,1-.322-.776l4.075-8.411a.56.56,0,0,1,.482-.316l2.88-.12v-5.151a.561.561,0,1,1,1.123,0v1.268c2.617.242,5.258.359,8.077.359,1.979,0,3.819-.066,5.791-.21h0v0l.082,1.118h0c-2,.145-3.865.213-5.873.213-2.807,0-5.448-.116-8.077-.356v2.709l2.774-.115h.02a.563.563,0,0,1,.544.409,4.571,4.571,0,0,0,4.6,3.04,5.384,5.384,0,0,0,2.282-.477,4.433,4.433,0,0,0,1.406-1.037,4.333,4.333,0,0,0,.913-1.525.571.571,0,0,1,.554-.409h.009l2.935.118v-5.107a.562.562,0,0,1,1.124,0v1.112l.542-.063q.429-.05.853-.1.6-.076,1.2-.157l.451-.063c1.448-.2,2.907-.43,4.519-.686.682-.108,1.41-.224,2.149-.338h0v0ZM386.6,280.778c.019-.005.038-.007.058-.01a.548.548,0,0,1,.091-.016.624.624,0,0,1,.1.008.563.563,0,0,1,.457.65l-.741,4.275v14.342l18.193-.008V285.806l-.012-.03a.257.257,0,0,1-.023-.067l-.746-4.3a.563.563,0,0,1,.457-.65.562.562,0,0,1,.65.458l.513,2.953,5.516-1.836-3.689-7.533-6.241-.252a5.756,5.756,0,0,1-5.471,3.433h-.1a5.757,5.757,0,0,1-5.471-3.432l-6.041.251-3.653,7.539,5.244,1.812.509-2.934a.546.546,0,0,1,.082-.2.217.217,0,0,1,.014-.017.57.57,0,0,1,.125-.131c.014-.01.029-.016.044-.025A.567.567,0,0,1,386.6,280.778Zm10.35-4.06-.035.009Zm10.877-6.428.257-.036Zm-2.334.3q.39-.045.778-.094Q405.888,270.542,405.5,270.587Zm-14.984,2.827h0Z" transform="translate(-376.776 -267.859)" fill="#3e6a45"/>
</svg>
