<svg xmlns="http://www.w3.org/2000/svg" width="37" height="29.636" viewBox="0 0 37 29.636">
  <path id="Path_305" data-name="Path 305" d="M493.772,290.961a2.755,2.755,0,0,0-3.947-.142,2.317,2.317,0,0,0-.534,1.077h-4.837a2.316,2.316,0,0,0-.534-1.077,2.755,2.755,0,0,0-3.948.143,2.888,2.888,0,0,0-.62,1.825,2.61,2.61,0,0,0,.539,1.656,2.606,2.606,0,0,0-.539,1.655,2.89,2.89,0,0,0,.62,1.825,2.755,2.755,0,0,0,3.948.142,2.316,2.316,0,0,0,.534-1.077h4.837a2.317,2.317,0,0,0,.534,1.077,2.755,2.755,0,0,0,3.947-.142,2.891,2.891,0,0,0,.62-1.825,2.607,2.607,0,0,0-.539-1.656,2.61,2.61,0,0,0,.539-1.657A2.889,2.889,0,0,0,493.772,290.961Zm-1.095,6.071a1.093,1.093,0,0,1-.9.386,1.189,1.189,0,0,1-.9-.29,1.149,1.149,0,0,1-.237-.771.706.706,0,0,0-.7-.78H483.8a.706.706,0,0,0-.7.78,1.161,1.161,0,0,1-.232.765,1.181,1.181,0,0,1-.908.3,1.1,1.1,0,0,1-.9-.386,1.5,1.5,0,0,1-.3-.934c0-.382.157-.95.588-.95h.614v-1.412h-.614c-.431,0-.588-.568-.588-.95a1.5,1.5,0,0,1,.3-.934,1.1,1.1,0,0,1,.9-.386,1.187,1.187,0,0,1,.9.291,1.149,1.149,0,0,1,.237.771.706.706,0,0,0,.7.779h6.136a.706.706,0,0,0,.7-.779,1.162,1.162,0,0,1,.232-.765,1.18,1.18,0,0,1,.907-.3,1.093,1.093,0,0,1,.9.386,1.493,1.493,0,0,1,.3.933c0,.383-.156.95-.587.95h-.614v1.412h.614c.431,0,.587.568.587.95A1.492,1.492,0,0,1,492.677,297.031Zm12.684,1.254c-.217,3.177-9.406,4.839-18.49,4.839s-18.273-1.663-18.489-4.839v-.015c0-.034-.009-.066-.009-.1a.65.65,0,0,1,.017-.085.674.674,0,0,1,0-.086l3.682-14.773a.706.706,0,0,1,1.37.341L469.8,298.211c.121,1.245,5.974,3.5,17.076,3.5s16.956-2.256,17.077-3.5L500.3,283.568a.706.706,0,0,1,1.37-.341L505.351,298a.8.8,0,0,1,0,.086.65.65,0,0,1,.017.085c0,.033-.007.066-.009.1ZM498.743,285.3a47.49,47.49,0,0,1-23.742,0,.706.706,0,1,1,.425-1.346,46.128,46.128,0,0,0,22.891,0,.706.706,0,1,1,.425,1.346Zm-24.849-4.968a3.162,3.162,0,0,1,3.136-3.158,3.759,3.759,0,0,1,6.1-2.2,3.449,3.449,0,0,1,6.036.693,3.106,3.106,0,0,1,3.31.325,3.466,3.466,0,0,1,6.149,2.2,3.127,3.127,0,0,1-.03.317,2.54,2.54,0,0,1-.676,4.99.706.706,0,0,1,0-1.411,1.135,1.135,0,1,0,0-2.27l-.106.014s-.01,0-.015,0a.72.72,0,0,1-.139-.014.708.708,0,0,1-.144-.022s-.008,0-.012,0a.594.594,0,0,1-.071-.044.693.693,0,0,1-.153-.093.659.659,0,0,1-.074-.091.711.711,0,0,1-.088-.121.726.726,0,0,1-.043-.143.676.676,0,0,1-.031-.1c0-.006,0-.01,0-.016a3.069,3.069,0,0,1,.036-.279s0-.01,0-.015a2.009,2.009,0,0,0,.132-.7,2.054,2.054,0,0,0-3.812-1.064c0,.007.006.015.009.022.012.024.02.048.031.073a3.138,3.138,0,0,1,.121.317c.014.042.025.083.037.125.026.1.048.2.066.295.007.04.015.081.021.122a3.026,3.026,0,0,1-.282,1.769.706.706,0,1,1-1.275-.6,1.744,1.744,0,0,0-1.573-2.5,1.708,1.708,0,0,0-1.185.476l0,.007c-.006.013-.015.023-.021.036a.7.7,0,0,1-.114.169c-.018.019-.037.035-.056.052a.716.716,0,0,1-.146.1c-.022.011-.043.023-.066.033a.7.7,0,0,1-.249.05.71.71,0,0,1-.263-.051c-.017-.007-.028-.02-.044-.028a.7.7,0,0,1-.174-.112.648.648,0,0,1-.042-.056.69.69,0,0,1-.111-.151.651.651,0,0,1-.029-.109.645.645,0,0,1-.039-.144V277h0c0-.031-.006-.068-.007-.1h0a2.053,2.053,0,0,0-4.1.049.706.706,0,0,1-1.412,0,3.139,3.139,0,0,1,.054-.539c0-.019,0-.036.006-.055a2.357,2.357,0,0,0-4.169,1.5c0,.006,0,.01,0,.015a.23.23,0,0,1,.008.06.663.663,0,0,1-.017.1.631.631,0,0,1-.006.1.314.314,0,0,1-.016.033.66.66,0,0,1-.063.131.712.712,0,0,1-.069.112,1.625,1.625,0,0,1-.21.168.75.75,0,0,1-.107.037.681.681,0,0,1-.156.038c-.012,0-.021.007-.033.008h-.028a.73.73,0,0,1-.09-.018.706.706,0,0,1-.088-.006,1.745,1.745,0,1,0-.444,3.431.706.706,0,1,1,0,1.411A3.164,3.164,0,0,1,473.894,280.33Z" transform="translate(-468.372 -273.488)" fill="#3e6a45"/>
</svg>
