<svg xmlns="http://www.w3.org/2000/svg" width="45" height="35.31" viewBox="0 0 45 35.31">
  <path id="Path_303" data-name="Path 303" d="M280.149,296.007c.458,2.072-.366,4.582-2.322,5.017l-.3-1.362c1.093-.243,1.568-1.971,1.263-3.354a1.744,1.744,0,1,0-3.486,0,3.693,3.693,0,0,0,.468,2.811,1.352,1.352,0,0,0,.794.543l-.3,1.362a2.745,2.745,0,0,1-1.608-1.067,5.031,5.031,0,0,1-.715-3.949c.439-1.988,2.767-2.86,2.866-2.9a.7.7,0,0,1,.479,0C277.382,293.147,279.71,294.02,280.149,296.007Zm5.855-2.9a.7.7,0,0,0-.479,0c-.1.036-2.427.909-2.866,2.9-.457,2.072.367,4.582,2.323,5.017l.3-1.362c-1.093-.243-1.568-1.971-1.263-3.354a1.744,1.744,0,1,1,3.486,0c.305,1.383-.17,3.111-1.263,3.354l.3,1.362c1.956-.435,2.78-2.945,2.322-5.017C288.43,294.02,286.1,293.147,286,293.111Zm8.721,0a.7.7,0,0,0-.48,0c-.1.036-2.427.909-2.866,2.9-.457,2.072.367,4.582,2.322,5.017l.3-1.362c-1.093-.243-1.568-1.971-1.263-3.354a1.744,1.744,0,1,1,3.486,0c.305,1.383-.17,3.111-1.263,3.354l.3,1.362c1.956-.435,2.78-2.945,2.322-5.017C297.151,294.019,294.823,293.147,294.724,293.111Zm22.261-13.351v2.371a.7.7,0,0,1-.205.494.637.637,0,0,1-.5.2l-8.5-.034a.7.7,0,0,1-.7-.7l.009-1.495a32.183,32.183,0,0,0-7.912,3.172v1.195a4.906,4.906,0,0,1-4.9,4.9H276.995a5.016,5.016,0,0,1-5.01-5.01v-4.666a.7.7,0,0,1,.7-.7h25.8a.7.7,0,0,1,.7.7v2c1.8-.947,5.57-2.761,8.652-3.116a44.154,44.154,0,0,1,8.527,0A.7.7,0,0,1,316.985,279.759Zm-19.2,1.125H273.38v3.969a3.619,3.619,0,0,0,3.615,3.615h17.288a3.509,3.509,0,0,0,3.5-3.505Zm17.8-.487a43.749,43.749,0,0,0-7.1,0l-.007,1,7.1.029ZM277.155,277.7l1.311.479c.059-.162,1.431-4.009-.4-7.107-1.352-2.283.959-4.2,1.058-4.275l-.437-.544.436.545-.872-1.089c-1.169.935-2.964,3.409-1.385,6.075C278.355,274.31,277.167,277.672,277.155,277.7Zm7.773,0,1.311.479c.059-.162,1.431-4.009-.4-7.107-1.352-2.283.959-4.2,1.058-4.275l-.873-1.088c-1.169.935-2.963,3.409-1.385,6.075C286.129,274.31,284.94,277.672,284.929,277.7Zm7.773,0,1.311.479c.059-.162,1.431-4.009-.4-7.107-1.352-2.283.959-4.2,1.058-4.275l-.437-.543-.437-.546c-1.169.935-2.963,3.409-1.385,6.075C293.9,274.31,292.714,277.672,292.7,277.7Z" transform="translate(-271.985 -265.713)" fill="#3e6a45"/>
</svg>
