<svg xmlns="http://www.w3.org/2000/svg" width="67.814" height="50.717" viewBox="0 0 67.814 50.717">
  <defs>
    <style>
      .cls-1 {
        fill: #1a1311;
      }

      .cls-2 {
        fill: #ffd800;
      }
    </style>
  </defs>
  <g id="ベクトルスマートオブジェクト" transform="translate(-606.062 -1283.253)">
    <g id="ベクトルスマートオブジェクト-2" data-name="ベクトルスマートオブジェクト" transform="matrix(1, 0.003, -0.003, 1, 546.516, 1250.595)">
      <g id="Group_37" data-name="Group 37">
        <path id="Path_179" data-name="Path 179" class="cls-1" d="M112.7,82.448a.357.357,0,0,1,.045-.383.293.293,0,0,1,.084-.062l1.306-4.49h-1.772c-.016.108-.109.139-.216.148-.166.017-.28-.035-.282-.138,0,0,0-.006,0-.01H102.6a.34.34,0,0,1-.329.4.359.359,0,0,1-.437-.354c0-.016,0-.03,0-.045h-19.6a.486.486,0,0,1,.018.07c.023.136.034.273.05.41h.01a2.959,2.959,0,0,1,.045.41c-.005.21-.169.282-.345.153q-.544-.4-1.075-.811a.176.176,0,0,1-.066-.232H77.3v0a.755.755,0,0,1-.033.148.186.186,0,0,1-.08.088.143.143,0,0,1-.2-.082.306.306,0,0,1-.027-.155H74.207a.692.692,0,0,1,.019.1c.007.056.01.112.014.168h.014a.416.416,0,0,1,.009.139c-.019.067-.042.159-.094.186a.235.235,0,0,1-.205-.04.485.485,0,0,0-.373-.129.233.233,0,0,1-.185-.095c-.021-.05.021-.139.06-.2a.893.893,0,0,1,.115-.129h-.553l.632,2.246a.8.8,0,0,0,.4-.227c.046-.045.136-.044.234-.072.067.047.18.085.2.152a.274.274,0,0,1-.094.231.532.532,0,0,0-.2.339.669.669,0,0,1-.316.4l.691,2.456h1.645a.169.169,0,0,1,.036-.1c.048-.044.127-.1.181-.085a.161.161,0,0,1,.135.181h1.286a.316.316,0,0,1,.071-.36.8.8,0,0,0,.31-.518c.024-.143.2-.2.364-.166s.252.15.227.423a.93.93,0,0,1-.161.21.458.458,0,0,0-.2.34.386.386,0,0,1-.014.071h10.5c.141-.22.106-.365-.125-.552-.156-.126-.323-.238-.481-.361a.394.394,0,0,1-.144-.461.388.388,0,0,1,.417-.207.262.262,0,0,1,.279.222.672.672,0,0,0,.323.469.393.393,0,0,1,.157.291.769.769,0,0,0,.217.6h22.924Zm-37.82-.962c-.12.027-.226-.067-.263-.217a.868.868,0,0,1-.152.008.355.355,0,0,1-.166-.047.674.674,0,0,1-.039-.752,2.505,2.505,0,0,0,.225-.25.377.377,0,0,1,.4-.108c.046.022.105.082.1.12a.209.209,0,0,1-.1.149,1.093,1.093,0,0,1-.231.039c-.139.031-.178.123-.086.225a1.7,1.7,0,0,0,.246.2,1.088,1.088,0,0,1,.167.115.228.228,0,0,1,.07.167s0,.005-.006.008v0A.27.27,0,0,1,74.885,81.486Zm.72-2.993c-.057.047-.145.1-.2.09-.126-.029-.126-.15-.116-.258s.026-.245.179-.248c.054,0,.122.064.161.116.027.036.015.1.02.15C75.632,78.4,75.637,78.467,75.605,78.493Zm1.17,2.132c-.255-.022-.341-.11-.335-.323.007-.234.105-.319.369-.317.042,0,.085.005.127.008v0a1.74,1.74,0,0,1,.19.014c.194.036.263.114.265.291,0,.2-.074.3-.267.323A1.634,1.634,0,0,1,76.776,80.625Zm.547,1.3a.294.294,0,0,1-.335-.292A1.6,1.6,0,0,1,77,81.417h-.008a1.548,1.548,0,0,1,.02-.248.164.164,0,0,1,.24-.122.86.86,0,0,1,.364.583A.279.279,0,0,1,77.323,81.927Zm2.393-.545a.566.566,0,0,1-.167-.033.167.167,0,0,1-.008-.3.5.5,0,0,1,.17-.048c.2-.029.331.032.346.155S79.955,81.363,79.715,81.382Zm.632-2.157a.768.768,0,0,0-.506.295,1.147,1.147,0,0,1-.855.132.423.423,0,0,1-.161-.212,1.113,1.113,0,0,1-.034-.306.446.446,0,0,0-.248-.427.458.458,0,0,1-.14-.106.346.346,0,0,1,.2-.586l.359-.038v-.008c.144-.009.288-.02.433-.025a.346.346,0,0,1,.358.182.315.315,0,0,1-.064.382l-.025.025c-.091.091-.211.18-.108.322.085.117.213.073.331.055s.261-.042.393-.052.224.03.247.152A.181.181,0,0,1,80.347,79.226ZM81.8,82.169c-.136-.015-.165-.115-.174-.213,0-.151.081-.266.187-.252.135.018.165.12.173.228C82,82.073,81.915,82.182,81.8,82.169Zm1.524.176A.3.3,0,0,1,83.019,82a.317.317,0,1,1,.631.046A.287.287,0,0,1,83.327,82.345Zm1.23-1.163a.647.647,0,0,0-.435.265.458.458,0,0,1-.6.113.393.393,0,0,1,0-.58,1.341,1.341,0,0,0,.162-.182.542.542,0,0,1,.508-.264c.1,0,.192-.013.287-.006a.332.332,0,0,1,.353.316A.3.3,0,0,1,84.557,81.182Zm.5-1.462a.509.509,0,0,1-.117.335.42.42,0,0,1-.476.007c-.133-.078-.258-.169-.383-.259a.362.362,0,0,1-.157-.395c.034-.16.162-.217.316-.238.072-.01.144-.016.216-.023l0-.014.216-.023a.282.282,0,0,1,.341.235A1.28,1.28,0,0,1,85.054,79.719Zm.338.577a.373.373,0,0,1-.252-.134c-.028-.041.045-.159.09-.232a.344.344,0,0,1,.139-.123c.079-.038.194-.1.245-.071.07.04.095.157.112.191C85.7,80.189,85.579,80.311,85.392,80.3Zm.337-1.509a1.386,1.386,0,0,1,.321-.439.218.218,0,0,1,.163-.041,1.069,1.069,0,0,1,.585.643c-.029.047-.068.2-.16.237a.979.979,0,0,1-.444.021c-.061-.006-.117-.075-.17-.12C85.913,78.994,85.678,78.959,85.729,78.787Zm.392.754c0-.115.127-.189.286-.174s.264.113.246.227-.149.181-.3.157C86.229,79.732,86.124,79.683,86.121,79.54Zm1.052,1.393a.253.253,0,0,1-.206.1.6.6,0,0,1-.282-.112,1.02,1.02,0,0,1-.235-.249c-.042-.061-.086-.166-.06-.217.034-.067.136-.1.213-.153a1.506,1.506,0,0,1,.268.141,1.37,1.37,0,0,1,.255.274A.264.264,0,0,1,87.173,80.933Zm-.108-2.074c-.122-.014-.233-.053-.245-.2-.01-.117.114-.2.274-.19s.269.1.262.215S87.225,78.877,87.065,78.859Zm2.062,2.654c-.159-.007-.272-.1-.264-.211s.111-.18.256-.178.276.086.282.2S89.289,81.52,89.128,81.513Zm6.785-.148c-.284.049-.572.069-.86.1l0-.014c-.227.024-.454.056-.682.071-.261.017-.357-.052-.4-.293a6.745,6.745,0,0,1-.082-.718c-.013-.222.068-.316.305-.349.369-.051.741-.088,1.113-.122.3-.028.474.2.668.357.094.078.021.221-.129.253s-.287.029-.43.049-.33.015-.312.205.2.167.343.157a2.486,2.486,0,0,1,.431-.026c.074.008.139.1.208.148C96.029,81.246,95.98,81.353,95.912,81.365Zm1.217-1.179c-.235.026-.377-.068-.413-.275a.327.327,0,0,1,.319-.4c.252-.034.4.068.433.291S97.38,80.158,97.13,80.186Zm3.038-.771c-.133.163-.282.315-.423.473-.064.072-.154.125-.231.06-.159-.132-.38-.221-.4-.462a.327.327,0,0,0-.176-.278.313.313,0,0,1-.17-.385c.047-.175.2-.184.355-.195l.059,0v0c.059,0,.118-.013.178-.013.194,0,.243.037.295.211.082.275.082.271.39.3a.261.261,0,0,1,.189.1A.242.242,0,0,1,100.168,79.415Zm1.618-.134c-.209.015-.292-.053-.328-.275-.007-.046-.008-.094-.012-.141h-.005a1.487,1.487,0,0,1,0-.2c.019-.157.1-.219.28-.233s.272.034.31.191a1.61,1.61,0,0,1,.036.336C102.071,79.183,101.994,79.265,101.786,79.281Zm.943,2.643a1.527,1.527,0,0,1-.259.326.318.318,0,0,1-.238.093.275.275,0,0,1-.155-.2.614.614,0,0,1,.07-.322,1.121,1.121,0,0,1,.235-.3c.061-.057.17-.125.235-.107.083.022.143.124.218.2A1.585,1.585,0,0,1,102.729,81.924Zm.92-.4a.268.268,0,0,1-.241-.291c0-.134.03-.256.192-.287.13-.025.242.1.257.27S103.782,81.518,103.648,81.522Zm1.176.568c-.131.015-.243-.1-.255-.276-.01-.133.012-.259.173-.3.132-.034.25.082.273.254S104.957,82.075,104.824,82.09Zm.292-2.415c-.07.014-.143.017-.232.026-.417.124-.655-.185-.9-.415-.2-.189-.052-.469.221-.552a1.064,1.064,0,0,1,1.122.344A.344.344,0,0,1,105.116,79.674Zm3.41,1.941c-.075.149-.227.153-.372.157a.268.268,0,0,1-.284-.217c-.028-.1-.04-.2-.059-.3h0a.354.354,0,0,1-.022-.134c.023-.094.036-.225.1-.264s.2.011.28.06a1.345,1.345,0,0,1,.315.279A.37.37,0,0,1,108.526,81.616Zm.638,0c-.124.028-.241-.108-.252-.278s.075-.288.194-.283c.169.007.206.132.231.262C109.338,81.446,109.33,81.577,109.164,81.614Zm.159-1.193a.267.267,0,0,1-.293-.282c0-.181.107-.28.321-.286a.265.265,0,0,1,.307.266C109.669,80.31,109.545,80.422,109.323,80.42Zm2.6-1.621c-.207.016-.325-.077-.336-.265s.094-.288.3-.3a.266.266,0,0,1,.321.251C112.235,78.669,112.129,78.784,111.928,78.8Z"/>
        <path id="Path_180" data-name="Path 180" class="cls-1" d="M68,47.05a4.031,4.031,0,0,0-.061-.674.229.229,0,0,1-.1.01.876.876,0,0,1-.463-.545c.025-.038.062-.162.138-.191a.532.532,0,0,1,.225-.02,4.18,4.18,0,0,0-6.228-1.95.521.521,0,0,1,.022.1,5.544,5.544,0,0,1,.047.593c0,.183-.065.259-.261.28-.29.031-.581.051-.872.069a4.014,4.014,0,0,0-.745,2.33,4.151,4.151,0,0,0,8.3,0Zm-2.066.67c-.14.168-.288.332-.445.487a.249.249,0,0,1-.2.071c-.067-.025-.108-.113-.132-.141a.781.781,0,0,1,.633-.688.271.271,0,0,1,.187.1C66.006,47.583,65.975,47.676,65.938,47.72Z"/>
        <path id="Path_181" data-name="Path 181" class="cls-1" d="M89.742,37.972a.307.307,0,0,1,.274.307.361.361,0,0,1-.03.2A4.158,4.158,0,0,0,93.6,40.554a4.082,4.082,0,1,0-4.15-4.082A4,4,0,0,0,89.742,37.972Zm5.817-4.957c.193-.014.307.069.33.241a.272.272,0,0,1-.279.322c-.208.02-.329-.069-.345-.255S95.35,33.03,95.558,33.015Zm-.38,3.476a.341.341,0,0,1,.367.388.384.384,0,1,1-.367-.388Zm-.821-.681a.291.291,0,0,1,.3.352.287.287,0,0,1-.315.307.3.3,0,0,1-.317-.338C94.033,35.911,94.149,35.8,94.357,35.81Zm-1.4-2.62a.287.287,0,0,1,.346-.277.291.291,0,0,1,.28.372.317.317,0,1,1-.626-.095Z"/>
        <path id="Path_182" data-name="Path 182" class="cls-1" d="M121.04,52.256a.272.272,0,0,1,.093.207.266.266,0,0,1-.28.3.287.287,0,0,1-.337-.274c-.017-.175.078-.271.281-.288a.446.446,0,0,1,.106.006,5.335,5.335,0,0,1-2.022-1.5l-1.354.734a.637.637,0,0,0,.051.046.144.144,0,0,1-.065.263.744.744,0,0,0-.547.325c-.038.051-.128.064-.221.106-.073-.036-.191-.058-.222-.121a.143.143,0,0,1-.009-.07l-11.771,6.377-9.4-16.381a5.384,5.384,0,0,1-3.493,0l-9.4,16.382L72.73,53.1a.4.4,0,0,1-.3.1c-.164-.006-.256-.093-.272-.295.009-.02.02-.056.037-.095l-3.874-2.1-.03.033a.272.272,0,0,1,.154.317.167.167,0,0,1-.265.118A.985.985,0,0,1,68,51.05a5.341,5.341,0,0,1-2.053,1.286l.379,1.348.078,0v0a1.709,1.709,0,0,1,.206-.014.279.279,0,0,1,.042.553c-.056.01-.112.017-.169.022L68.9,62.819a1.056,1.056,0,0,1,.172.168.353.353,0,0,1,.046.313.709.709,0,0,1-.056.1L72.22,74.639h31.5c0-.011,0-.023,0-.035,0-.134.022-.258.188-.288.132-.023.245.1.26.269a.41.41,0,0,1,0,.053h10.807l6.272-22.3C121.177,52.312,121.109,52.283,121.04,52.256Zm-52.5-.012c-.116.132-.189.137-.326.023-.1-.087-.3-.143-.249-.315s.247-.1.381-.141c.138.015.321-.092.4.086C68.808,52.06,68.627,52.143,68.537,52.245Zm5.7,9.418a.172.172,0,0,1,.133.1c.005.04-.061.117-.108.126s-.1-.048-.195-.1C74.144,61.731,74.19,61.663,74.236,61.662ZM70.23,63.884c-.137-.006-.179-.1-.194-.212a.216.216,0,0,1,.158-.266c.108-.014.2.084.21.227S70.341,63.888,70.23,63.884Zm.935,2.257c-.2.013-.321-.084-.329-.273s.1-.283.313-.292a.266.266,0,0,1,.314.259C71.477,66.017,71.37,66.128,71.165,66.141Zm1.2-.09c-.206.016-.324-.078-.335-.265s.093-.287.305-.3a.266.266,0,0,1,.32.252C72.671,65.92,72.564,66.035,72.362,66.05Zm.4-12.043a.459.459,0,0,0-.177.4c.007.161-.1.225-.259.252-.243.041-.241.049-.255.289,0,.019,0,.038,0,.057-.008.1-.035.2-.161.2s-.179-.1-.21-.264c.028-.046.059-.157.135-.207a.287.287,0,0,0,.154-.307.329.329,0,0,1,.129-.329.336.336,0,0,0,.126-.3.233.233,0,0,1,.208-.266c.174-.034.306,0,.366.114A.277.277,0,0,1,72.762,54.007Zm1.395,13.9a.89.89,0,0,0-.48.251c-.085.085-.21.034-.259-.079a.294.294,0,0,1,.2-.405,2.633,2.633,0,0,1,.279-.046.775.775,0,0,1,.219.007.209.209,0,0,1,.135.123A.176.176,0,0,1,74.157,67.9Zm.238-1.8a.336.336,0,0,1-.457.026c-.065-.059-.033-.145.047-.189a.856.856,0,0,1,.171-.052.712.712,0,0,1,.172.031C74.409,65.96,74.455,66.042,74.395,66.108ZM75.631,69.5c-.009.22-.087.332-.2.314-.15-.024-.166-.139-.159-.262.009-.175.085-.284.2-.268A.181.181,0,0,1,75.631,69.5Zm1.054-.352c-.132.013-.242-.1-.253-.278-.009-.133.014-.259.176-.3.132-.032.25.084.271.256S76.818,69.135,76.686,69.148Zm.96-9.248c-.008-.048.069-.145.125-.158s.129.054.241.109c-.092.082-.144.167-.2.169A.21.21,0,0,1,77.646,59.9Zm1.144,9.41a2.2,2.2,0,0,1-.25.034l-.215.023v.007a3.2,3.2,0,0,1-.431.04.268.268,0,0,1-.2-.1.264.264,0,0,1,.042-.216,1.016,1.016,0,0,1,.978-.458.341.341,0,0,1,.077.674Zm1.08.384a.337.337,0,0,1,.053-.445.554.554,0,0,0,.2-.489c-.016-.195.112-.277.3-.316.052-.01.094-.019.129-.029a.884.884,0,0,1-.066-.342H80.48l.007-.008s0,.005,0,.008a.513.513,0,0,1,.233.035c0-.008,0-.016,0-.025s0-.046,0-.069c.006-.122.034-.241.187-.251s.221.11.265.312c-.032.056-.065.193-.156.257l-.006,0c.042.048.083.1.126.144a.194.194,0,0,1,.033.16.3.3,0,0,1-.112.177.235.235,0,0,1-.184-.037l-.024-.017a.39.39,0,0,1-.149.351.405.405,0,0,0-.14.372.282.282,0,0,1-.241.33C80.109,69.866,79.947,69.829,79.869,69.694Zm.749,4.23a1.246,1.246,0,0,1-.241.292c-.061.053-.18.111-.239.088-.082-.032-.131-.138-.161-.173a.415.415,0,0,1,.531-.477A.171.171,0,0,1,80.619,73.924Zm.918-1.144a.727.727,0,0,1-.327.1c-.28.016-.5.093-.622-.141s0-.386.155-.55a5.678,5.678,0,0,0,.467-.566.459.459,0,0,1,.48-.163c.188.029.205.19.253.336C82.085,72.231,81.828,72.519,81.537,72.78Zm19.276-16.929c.25-.03.4.075.425.3s-.1.36-.345.382a.344.344,0,0,1-.414-.32C100.464,56.009,100.584,55.879,100.813,55.851Zm.119,5.7,0-.008a.46.46,0,0,0-.3.194.243.243,0,0,1-.209.079.28.28,0,0,1-.13-.189.313.313,0,0,1,.247-.4c.213-.051.3.024.39.319l.01,0v.009h-.006l.008-.009Zm-.761,3.141c-.185.006-.231-.127-.251-.275-.03-.21.036-.358.176-.364.189-.008.227.13.249.276C100.375,64.536,100.309,64.686,100.17,64.69Zm-.39-7.679a2.79,2.79,0,0,1,.466-.056.332.332,0,0,1,.393.311c.021.208-.082.325-.33.37-.059.011-.12.014-.18.02v0a2.339,2.339,0,0,1-.252.025.318.318,0,0,1-.356-.31A.306.306,0,0,1,99.78,57.011Zm-5.755-7.187c.077-.023.207.051.284.116a.923.923,0,0,1,.265.32.9.9,0,0,1,.057.433c-.014.128-.133.179-.266.13a1.134,1.134,0,0,1-.485-.8C93.9,49.985,93.947,49.847,94.025,49.824Zm-.688,11.7c.158.151.115.3-.1.348a2.388,2.388,0,0,1-.285.033l-.013.048c-.152-.037-.372-.027-.443-.12-.137-.18.1-.3.2-.424.151-.186.224-.187.422-.056A1.6,1.6,0,0,1,93.338,61.524Zm-.466,3.9c.011.182-.1.29-.3.3a.27.27,0,0,1-.324-.279c0-.182.106-.28.32-.287A.265.265,0,0,1,92.871,65.427Zm.072-5.455h-.012c.008.068.02.136.024.2.009.162-.036.3-.222.345a.409.409,0,0,1-.436-.069.378.378,0,0,1-.039-.45,1.792,1.792,0,0,1,.259-.328.326.326,0,0,1,.235-.1c.069.017.125.12.163.2A.629.629,0,0,1,92.944,59.972ZM90.232,46.5a.407.407,0,0,1,.126-.234,1.092,1.092,0,0,1,.948.02c.347.264.692.529,1.045.784a.4.4,0,0,1,.184.448.314.314,0,0,1-.355.234.916.916,0,0,0-.869.5.181.181,0,0,1-.022.027c-.1.106-.156.318-.341.229-.1-.049-.133-.234-.2-.358a.884.884,0,0,1,.2-.631c.114-.11.07-.232-.06-.321-.156-.107-.31-.216-.469-.318A.367.367,0,0,1,90.232,46.5Zm-2.5,3.471c.263-.029.367.057.418.351.006.034.008.068.012.1h0a1.966,1.966,0,0,1,.023.2c0,.243-.083.336-.327.365s-.352-.043-.4-.282a2.142,2.142,0,0,1-.039-.306C87.391,50.106,87.474,50,87.733,49.969Zm-.593,3.652c.028-.076.14-.124.171-.149.378-.043.595.161.538.434a.2.2,0,0,1-.318.144,1.2,1.2,0,0,1-.282-.206C87.191,53.784,87.119,53.677,87.14,53.621ZM84.5,58.578a1.7,1.7,0,0,1-.475-.362.428.428,0,0,1-.069-.378,1.709,1.709,0,0,1,.354-.47.241.241,0,0,1,.225-.012c.253.185.568.339.516.694.01.085.023.142.023.2A.374.374,0,0,1,84.5,58.578Zm.391,13.077c-.089-.194.127-.3.231-.428.135-.164.223-.173.394-.041.131.1.366.163.316.373s-.3.137-.456.186C85.207,71.731,84.989,71.868,84.89,71.655Zm1.1,1.287c-.033.076-.149.119-.18.142-.364.035-.572-.16-.525-.422a.2.2,0,0,1,.316-.153,1.115,1.115,0,0,1,.286.205C85.948,72.774,86.016,72.887,85.992,72.942Zm.957-7.288c-.147-.049-.195-.173-.1-.291a.973.973,0,0,1,.232-.21c.064-.04.174-.084.223-.056.065.037.089.141.106.172C87.387,65.586,87.182,65.732,86.949,65.654Zm.911,3.728c-.07.013-.142.016-.214.024v0a2.013,2.013,0,0,1-.249.025.313.313,0,0,1-.336-.287.307.307,0,0,1,.217-.365.18.18,0,0,1-.061-.128c-.008-.117.117-.2.276-.188s.269.1.26.217a.15.15,0,0,1-.011.032c.014,0,.029,0,.043-.005.241-.011.368.093.391.3S88.1,69.336,87.86,69.382Zm.321-12.5a1.568,1.568,0,0,1-.025-.2c-.018-.178-.084-.383.128-.491a.515.515,0,0,1,.59.092c.388.3.4.291.063.667a.987.987,0,0,1-.116.13A.384.384,0,0,1,88.181,56.879Zm.588,11.668c.159.013.266.108.252.223s-.142.183-.3.162c-.122-.017-.231-.059-.235-.2C88.485,68.611,88.611,68.534,88.77,68.548Zm.78,3.218a.6.6,0,0,0-.443.192.354.354,0,0,1-.509-.009.394.394,0,0,1,.046-.486,1.456,1.456,0,0,1,.312-.26,2.017,2.017,0,0,1,.411-.114l.009.041a1.627,1.627,0,0,1,.19.014c.2.039.27.122.263.321S89.757,71.76,89.55,71.765Zm1.276-2.2a.184.184,0,0,1-.273.121,1.185,1.185,0,0,1-.466-.7.348.348,0,0,1,.368-.389.358.358,0,0,1,.4.364,2.239,2.239,0,0,1-.008.264h.017A1.84,1.84,0,0,1,90.826,69.566Zm.236-12.79c-.156.149-.31.111-.367-.093a1.769,1.769,0,0,1-.034-.27L90.61,56.4c.038-.144.027-.347.124-.421.185-.142.316.076.45.168.215.147.217.222.06.418A2.125,2.125,0,0,1,91.062,56.776Zm.625,16.113c-.218.019-.3-.069-.337-.373h-.01l0-.008h.006l-.009.008.009-.008s0,.005,0,.008a.461.461,0,0,0,.324-.149.245.245,0,0,1,.219-.048.278.278,0,0,1,.1.206A.314.314,0,0,1,91.687,72.889ZM92.105,56.5a.344.344,0,0,1,.388-.365.357.357,0,0,1,.379.414.352.352,0,0,1-.409.383C92.211,56.913,92.089,56.765,92.105,56.5Zm.449,13.661c-.188-.019-.205-.162-.2-.309,0-.212.089-.35.227-.335.184.021.21.159.206.309C92.78,70.035,92.693,70.171,92.554,70.157Zm-.238-1.265a.174.174,0,0,1-.1-.278,1.135,1.135,0,0,1,.226-.265c.065-.054.179-.115.242-.094.083.027.137.132.169.165A.414.414,0,0,1,92.316,68.892Zm.4-1.419c-.249.028-.4-.083-.42-.31a.322.322,0,0,1,.327-.37.35.35,0,0,1,.421.32C93.07,67.325,92.96,67.446,92.715,67.474Zm1.37-.787c-.007.207-.09.294-.3.324s-.333-.018-.389-.214a.761.761,0,0,0-.336-.465.354.354,0,0,1-.105-.516.463.463,0,0,1,.588-.056,1.485,1.485,0,0,1,.334.26,2.688,2.688,0,0,1,.234.442l-.05.021A1.408,1.408,0,0,1,94.085,66.686Zm.546-4.624c-.249.03-.4-.079-.423-.3a.323.323,0,0,1,.318-.375c.254-.036.405.063.438.285S94.88,62.033,94.631,62.063Zm.36,2.519c.023-.159.174-.167.308-.179s.259,0,.284.144c.01.06-.048.143-.1.195-.035.036-.111.036-.178.054-.064-.007-.151.007-.2-.028A.253.253,0,0,1,94.991,64.582Zm.8,8.425a.426.426,0,0,1-.467.045c-.048-.046-.09-.164-.062-.2a.993.993,0,0,1,.26-.179,1.021,1.021,0,0,1,.29.127C95.841,72.829,95.825,72.954,95.786,73.006Zm.289-14.075c0-.16-.045-.319-.055-.479-.016-.259.084-.366.342-.387a.311.311,0,0,1,.389.305c.019.113.011.23.03.343.038.227.119.291.357.3a.978.978,0,0,1,.859.647c.028.084.068.2.137.229a.592.592,0,0,1,.324.606c0,.046.01.091.016.137h.012a3.059,3.059,0,0,1,.045.41c0,.213-.167.292-.34.163-.379-.283-.749-.576-1.121-.867-.036-.028-.08-.073-.081-.11-.007-.37-.313-.534-.572-.7A.671.671,0,0,1,96.075,58.931Zm.581,4.978c.2-.023.337.041.336.169,0,.169-.139.193-.25.21-.227.027-.363-.037-.361-.165C96.385,63.956,96.517,63.925,96.656,63.909Zm.291,2.262a.575.575,0,0,1-.074-.225.4.4,0,0,0-.234-.317.331.331,0,0,1-.2-.425.317.317,0,0,1,.2-.161c.051-.011.133.071.187.125a.213.213,0,0,1,.039.129.41.41,0,0,0,.26.375c.093.044.147.161.215.241a1.145,1.145,0,0,1-.071.256A.183.183,0,0,1,96.947,66.171Zm.3,5.194c-.016-.064.052-.159.106-.221.031-.036.111-.032.176-.047.055.005.129-.009.17.02.06.042.136.116.134.175,0,.166-.155.18-.289.2S97.283,71.5,97.25,71.364Zm1.58,2.391a1.113,1.113,0,0,1-.272-.13.547.547,0,0,0-.427-.14.308.308,0,0,1-.365-.213.32.32,0,0,1,.106-.4.408.408,0,0,1,.476-.022.961.961,0,0,0,.654.227c.168,0,.271.17.263.355S99.145,73.727,98.83,73.755Zm1.229-1.959a.983.983,0,0,1-.589.5c-.225.022-.354-.06-.4-.255a.32.32,0,0,1,.263-.416,1.942,1.942,0,0,1,.251-.029v-.009a1.877,1.877,0,0,1,.286-.028A.179.179,0,0,1,100.059,71.8Zm1.065-3.222a.333.333,0,0,1-.282-.054.635.635,0,0,0-.426-.144c-.276,0-.447-.206-.634-.36a.157.157,0,0,1,.1-.265.743.743,0,0,0,.536-.3.17.17,0,0,1,.307.061.8.8,0,0,0,.4.581c.06.04.078.136.13.235C101.217,68.41,101.2,68.538,101.124,68.574Zm1.281-3.292a.36.36,0,0,1-.449-.3,2.285,2.285,0,0,1-.032-.262h-.017a1.86,1.86,0,0,1-.015-.337.183.183,0,0,1,.252-.159,1.194,1.194,0,0,1,.566.62A.347.347,0,0,1,102.405,65.282Zm.686-2.657a1.569,1.569,0,0,1-.19.014c-.208-.009-.286-.081-.309-.279s.026-.3.229-.338a.592.592,0,0,0,.41-.255.354.354,0,0,1,.505-.065.394.394,0,0,1,.028.487,1.463,1.463,0,0,1-.269.3,2.032,2.032,0,0,1-.389.172Zm.488,7.5a.322.322,0,0,1,.317-.374c.254-.036.407.062.438.282s-.08.335-.315.369C103.763,70.437,103.6,70.336,103.579,70.122Zm.647.982a.94.94,0,0,1-.14.034.919.919,0,0,1-.175-.006.215.215,0,0,1-.116-.068c-.07-.09-.034-.172.051-.233.137-.1.421-.081.485.033S104.34,71.057,104.226,71.1Zm.038-3.539a.443.443,0,0,1-.476.047,1.9,1.9,0,0,1-.382-.259.25.25,0,0,1-.088-.2c.015-.059.106-.118.176-.143a1.327,1.327,0,0,1,.286-.036v.009l.18-.019a.35.35,0,0,1,.3.6Zm9.816-13.171a.182.182,0,0,1,.066-.1.143.143,0,0,1,.214.051c.087.121.062.366-.044.418s-.179,0-.219-.1a.783.783,0,0,1-.027-.121A.761.761,0,0,1,114.081,54.393Zm-8.8,9.686c.055-.006.119.069.223.138-.1.07-.167.146-.222.14s-.146-.089-.146-.139S105.219,64.085,105.276,64.079Zm-.059,7.6a.322.322,0,0,1-.394-.3c-.028-.222.1-.362.342-.386s.4.086.414.314S105.474,71.663,105.217,71.684Zm.14-6.694c-.159.013-.282-.062-.29-.176s.1-.205.264-.21c.123,0,.238.02.27.16C105.627,64.878,105.516,64.976,105.357,64.989Zm1.1,2.968a.968.968,0,0,1-.2.242c-.057.049-.16.108-.212.088-.069-.027-.11-.127-.131-.154-.025-.317.156-.492.4-.448C106.471,67.712,106.537,67.827,106.461,67.957Zm.549-8.275a2.053,2.053,0,0,1-.256.311.162.162,0,0,1-.292-.068,1.115,1.115,0,0,1-.021-.224h0c0-.056-.013-.113-.013-.169a.232.232,0,0,1,.173-.264.353.353,0,0,1,.363.047A.3.3,0,0,1,107.009,59.682Zm.608,10.7a.324.324,0,0,1-.4-.295c-.029-.221.1-.363.34-.389s.4.084.416.311S107.874,70.364,107.617,70.385Zm2.017-12.029a.431.431,0,0,1-.442-.043.368.368,0,0,1-.069-.445,2.482,2.482,0,0,1,.3-.387.2.2,0,0,1,.357.071,1.374,1.374,0,0,1,.035.271h0c.008.068.02.136.023.2A.281.281,0,0,1,109.634,58.356Zm1.308,12.965c-.021.066-.133.106-.156.122-.377.047-.6-.168-.541-.436a.2.2,0,0,1,.3-.145,1.2,1.2,0,0,1,.315.225A.286.286,0,0,1,110.942,71.321Zm1.524-3.71c0-.165.124-.2.265-.222.2-.025.341.034.345.159.006.168-.127.2-.213.213C112.612,67.795,112.469,67.734,112.466,67.61Zm1.318,1.068a4.024,4.024,0,0,1-.674.07c-.054,0-.148-.1-.154-.153a.235.235,0,0,1,.124-.179,1.4,1.4,0,0,1,.324-.07,1.56,1.56,0,0,1,.346,0,.232.232,0,0,1,.155.154A.217.217,0,0,1,113.784,68.678Zm.011-7.12c-.207.018-.326-.072-.341-.257s.089-.294.295-.306a.282.282,0,0,1,.332.274C114.087,61.438,113.984,61.542,113.8,61.558Zm.883-.928a2.286,2.286,0,0,1-.386.034.272.272,0,0,1-.315-.266c-.011-.172.077-.265.283-.3.049-.007.1-.008.149-.012h0a2.058,2.058,0,0,1,.208-.014.261.261,0,0,1,.284.264A.253.253,0,0,1,114.678,60.63Zm1.12-6.911c-.054.009-.13-.046-.177-.091s-.03-.1-.042-.145c0-.054-.012-.123.016-.154.049-.055.128-.124.188-.119.129.01.147.13.154.238S115.95,53.694,115.8,53.719Zm1.321,8.7c-.156,0-.181-.116-.191-.19-.024-.219.036-.341.15-.34.153,0,.185.113.2.236C117.293,62.3,117.234,62.416,117.119,62.416Zm.329-7.385c-.167.014-.276-.042-.272-.148.006-.14.12-.155.212-.167.188-.017.3.04.293.145C117.673,55,117.563,55.021,117.448,55.031Zm.214-1.061a.263.263,0,0,1-.166.128c-.043.008-.108-.062-.15-.108a.174.174,0,0,1-.028-.107.337.337,0,0,0-.2-.315c-.075-.039-.117-.136-.171-.2a.949.949,0,0,1,.065-.209.151.151,0,0,1,.264.005.473.473,0,0,1,.055.187.325.325,0,0,0,.184.268A.272.272,0,0,1,117.662,53.97Zm.919.689c-.1.006-.213-.008-.229-.126-.007-.049.044-.117.087-.158s.092-.026.148-.04c.052.007.125,0,.165.028a.207.207,0,0,1,.088.156C118.816,54.651,118.691,54.653,118.58,54.659Zm1.968-1.1a.382.382,0,0,1-.485.031,1.21,1.21,0,0,1-.267-.223,2.2,2.2,0,0,1-.18-.37l.042-.016a1.207,1.207,0,0,1-.013-.17c.011-.17.082-.239.254-.259s.274.023.314.186a.626.626,0,0,0,.263.392A.291.291,0,0,1,120.549,53.557Z"/>
        <path id="Path_183" data-name="Path 183" class="cls-1" d="M119.193,47.05a4.116,4.116,0,0,0,4.15,4.082,4.216,4.216,0,0,0,1.243-.186c.026-.106.11-.169.263-.193.058-.009.118-.01.177-.014v0l.1-.01a4.143,4.143,0,0,0,1.673-1.425c-.107-.076-.264-.137-.22-.294.05-.182.247-.1.381-.141a.407.407,0,0,0,.094,0,4,4,0,0,0,.438-1.817c0-.033,0-.064,0-.1a4.928,4.928,0,0,1-.52-.445.438.438,0,0,1-.071-.312c.008-.116.119-.167.237-.177l.214-.02a4.156,4.156,0,0,0-8.157,1.051Zm7.295.819c.029-.062.126-.094.153-.112.3-.02.466.147.42.361a.166.166,0,0,1-.265.118.908.908,0,0,1-.23-.177C126.52,48.008,126.467,47.913,126.488,47.869Zm-2.074-3.361a.271.271,0,0,1,.187.1c.024.036-.007.129-.044.173a6.563,6.563,0,0,1-.445.487.25.25,0,0,1-.2.071c-.067-.025-.108-.113-.132-.141A.781.781,0,0,1,124.414,44.508Z"/>
      </g>
    </g>
    <path id="Color_Overlay" data-name="Color Overlay" class="cls-2" d="M635.87,1333.9a.77.77,0,0,1-.215-.6.391.391,0,0,0-.157-.291.672.672,0,0,1-.321-.472.262.262,0,0,0-.278-.222.387.387,0,0,0-.418.205.394.394,0,0,0,.142.462c.158.122.324.236.48.362.23.188.265.333.123.553l-10.5-.031a.359.359,0,0,0,.013-.072.464.464,0,0,1,.2-.339.875.875,0,0,0,.162-.209c.026-.273-.049-.384-.226-.424s-.34.021-.365.165a.8.8,0,0,1-.312.517.315.315,0,0,0-.072.36l-1.286,0a.162.162,0,0,0-.133-.182.266.266,0,0,0-.182.085.162.162,0,0,0-.036.1l-1.645,0-.683-2.458a.672.672,0,0,0,.318-.4.532.532,0,0,1,.2-.338.277.277,0,0,0,.1-.23c-.022-.067-.135-.106-.2-.153-.1.028-.189.027-.235.071a.793.793,0,0,1-.4.227l-.625-2.248.553,0a.915.915,0,0,0-.115.129c-.04.057-.082.145-.06.2a.231.231,0,0,0,.184.1.492.492,0,0,1,.373.13.236.236,0,0,0,.205.041c.052-.026.074-.118.094-.185a.385.385,0,0,0-.008-.139h-.014c0-.056-.007-.113-.013-.168a.576.576,0,0,0-.019-.1l2.748.008a.305.305,0,0,0,.025.156.144.144,0,0,0,.2.083.182.182,0,0,0,.08-.088.63.63,0,0,0,.034-.148v0l3.57.011a.176.176,0,0,0,.066.232q.529.414,1.072.814c.176.129.34.058.346-.153a3.027,3.027,0,0,0-.044-.41h-.01c-.014-.137-.026-.275-.048-.411a.507.507,0,0,0-.018-.07l19.6.059c0,.015,0,.029,0,.045a.359.359,0,0,0,.435.356.34.34,0,0,0,.33-.4l9.269.028s0,.006,0,.011c0,.1.115.155.281.139.107-.009.2-.04.217-.148l1.772.005-1.32,4.486a.3.3,0,0,0-.084.063.355.355,0,0,0-.046.382l-.173.586Zm12.776-1.475a1.153,1.153,0,0,0-.236.3.617.617,0,0,0-.071.322.276.276,0,0,0,.154.2.317.317,0,0,0,.239-.094,1.5,1.5,0,0,0,.261-.326,1.613,1.613,0,0,0,.105-.312c-.075-.072-.134-.175-.217-.2l-.022,0A.393.393,0,0,0,648.645,1332.421Zm-19.364.421a.3.3,0,0,0,.308.346.286.286,0,0,0,.323-.3.292.292,0,0,0-.289-.36h-.038C629.4,1332.529,629.293,1332.637,629.281,1332.842Zm-1.389-.048c.009.1.038.2.174.213.112.013.2-.1.186-.238-.008-.108-.038-.21-.173-.228h-.017C627.965,1332.542,627.889,1332.652,627.892,1332.795Zm23.114-.373c-.161.041-.184.167-.174.3.012.175.123.292.255.277s.213-.149.191-.321c-.019-.152-.114-.259-.227-.26A.194.194,0,0,0,651.006,1332.421Zm-27.727-.427a1.729,1.729,0,0,0-.022.247h.008a1.6,1.6,0,0,0-.013.217.294.294,0,0,0,.334.293.279.279,0,0,0,.3-.3.857.857,0,0,0-.363-.584.218.218,0,0,0-.082-.019A.163.163,0,0,0,623.279,1331.994Zm30.855.479a.268.268,0,0,0,.283.218c.145,0,.3-.007.374-.156a.372.372,0,0,0-.039-.423,1.352,1.352,0,0,0-.314-.279c-.078-.05-.219-.1-.28-.061s-.079.169-.1.263a.348.348,0,0,0,.022.135h0C654.095,1332.271,654.106,1332.374,654.134,1332.473Zm1.043-.217c.01.169.128.306.251.279.167-.037.175-.168.175-.3-.025-.129-.061-.255-.23-.261h-.008C655.248,1331.974,655.167,1332.1,655.177,1332.256Zm-24.716-.877a.541.541,0,0,0-.508.263,1.4,1.4,0,0,1-.163.182.392.392,0,0,0,0,.581.458.458,0,0,0,.6-.112.647.647,0,0,1,.437-.264.3.3,0,0,0,.277-.338.331.331,0,0,0-.352-.317l-.074,0h-.014C630.594,1331.372,630.527,1331.377,630.461,1331.379Zm19.4.469c-.162.031-.2.153-.193.287a.267.267,0,0,0,.24.291c.133,0,.223-.136.209-.307s-.106-.274-.222-.274A.234.234,0,0,0,649.866,1331.848Zm-8.29-.929c-.372.033-.743.067-1.112.119-.238.031-.319.126-.306.348a6.654,6.654,0,0,0,.079.717c.039.24.135.311.4.3.229-.015.455-.046.683-.07v.014c.287-.03.576-.049.86-.1.068-.012.117-.119.175-.183-.068-.051-.132-.139-.207-.147a2.416,2.416,0,0,0-.431.023c-.147.01-.326.025-.343-.157s.174-.184.312-.2.29-.017.43-.047.223-.176.13-.254c-.183-.152-.343-.36-.616-.361Zm-6.447,1.242c-.009.114.1.205.263.212s.28-.076.275-.191-.127-.2-.283-.2h-.005C635.237,1331.984,635.136,1332.054,635.129,1332.161Zm-13.98.143a.27.27,0,0,0,.167-.339v0s.005-.005.005-.007c.014-.049-.029-.122-.069-.168a1.087,1.087,0,0,0-.167-.115,1.735,1.735,0,0,1-.246-.2c-.092-.1-.051-.194.087-.225a1.084,1.084,0,0,0,.23-.038.21.21,0,0,0,.1-.149c0-.038-.056-.1-.1-.12a.377.377,0,0,0-.4.106,2.473,2.473,0,0,1-.226.249.676.676,0,0,0,.037.752.365.365,0,0,0,.166.048.858.858,0,0,0,.152-.007C620.923,1332.237,621.029,1332.331,621.149,1332.3Zm4.827-.474a.512.512,0,0,0-.17.047.166.166,0,0,0,.007.3.533.533,0,0,0,.167.034c.239-.019.356-.106.341-.229-.012-.1-.1-.162-.252-.163A.705.705,0,0,0,625.976,1331.83Zm6.682-.524c-.026.051.016.156.058.217a1,1,0,0,0,.235.25.6.6,0,0,0,.281.113.253.253,0,0,0,.206-.1.261.261,0,0,0-.046-.218,1.363,1.363,0,0,0-.254-.274,1.441,1.441,0,0,0-.268-.142C632.794,1331.206,632.692,1331.239,632.659,1331.306Zm-9.95-.181c-.006.212.079.3.334.324a1.613,1.613,0,0,0,.349,0c.193-.023.27-.125.268-.322,0-.176-.07-.255-.265-.292a1.668,1.668,0,0,0-.19-.014v0c-.042,0-.085-.008-.127-.01h0C622.814,1330.808,622.715,1330.892,622.708,1331.125Zm32.591-.067a.266.266,0,0,0,.292.283c.221,0,.346-.11.336-.3a.262.262,0,0,0-.291-.266h-.014C655.407,1330.781,655.3,1330.878,655.3,1331.059Zm-23.66-.4a.338.338,0,0,0-.139.122c-.046.074-.119.192-.091.232a.372.372,0,0,0,.25.135c.187.015.3-.106.337-.369-.018-.033-.042-.15-.112-.191a.074.074,0,0,0-.033-.009A.638.638,0,0,0,631.639,1330.656Zm11.667-.266a.327.327,0,0,0-.319.4c.035.207.175.3.412.276s.369-.163.339-.387a.313.313,0,0,0-.343-.3A.8.8,0,0,0,643.306,1330.39Zm-12.368-.433-.216.022,0,.014c-.072.006-.144.013-.216.023-.153.02-.282.076-.317.237a.363.363,0,0,0,.157.4c.125.09.249.182.383.26a.416.416,0,0,0,.475-.006.5.5,0,0,0,.119-.334,1.268,1.268,0,0,0-.046-.374.274.274,0,0,0-.29-.239Zm14.455-.437c-.151.011-.309.02-.356.193a.315.315,0,0,0,.169.386.326.326,0,0,1,.176.277c.022.241.243.331.4.464.077.065.167.012.231-.06.141-.157.291-.309.424-.471a.245.245,0,0,0,.064-.2c-.022-.05-.121-.088-.189-.1-.308-.031-.309-.026-.39-.3-.05-.174-.1-.211-.293-.211-.059,0-.118.008-.177.013v0Zm5.087.12c-.274.081-.423.362-.223.552.243.229.481.54.9.417.089-.009.162-.011.232-.025a.344.344,0,0,0,.214-.6,1.15,1.15,0,0,0-.81-.394A1.091,1.091,0,0,0,650.479,1329.639Zm-18.088.752c0,.142.106.193.229.212a.245.245,0,0,0,.3-.156c.017-.114-.089-.212-.247-.229l-.04,0C632.5,1330.217,632.39,1330.287,632.391,1330.392Zm-7.153-1.592v.007l-.359.038a.346.346,0,0,0-.2.586.444.444,0,0,0,.14.106.446.446,0,0,1,.246.427,1.141,1.141,0,0,0,.033.306.432.432,0,0,0,.161.213,1.149,1.149,0,0,0,.855-.13.77.77,0,0,1,.507-.292.181.181,0,0,0,.182-.214c-.022-.122-.129-.162-.247-.153s-.262.031-.393.05-.247.062-.331-.056c-.1-.143.018-.23.11-.322l.024-.025a.315.315,0,0,0,.066-.382.338.338,0,0,0-.334-.184h-.024C625.526,1328.78,625.382,1328.792,625.238,1328.8Zm22.756.534c-.183.013-.261.075-.281.232a1.608,1.608,0,0,0,0,.2h.005c0,.047,0,.095.012.141.035.22.118.291.327.275s.285-.1.282-.318a1.625,1.625,0,0,0-.036-.337.221.221,0,0,0-.251-.194Zm-15.67-.134a1.406,1.406,0,0,0-.323.438c-.051.172.185.208.294.3.054.045.11.114.17.121a.973.973,0,0,0,.444-.02c.092-.038.132-.19.161-.236a1.066,1.066,0,0,0-.583-.645l-.028,0A.2.2,0,0,0,632.324,1329.2Zm25.846-.035c-.211.011-.316.114-.306.3s.129.281.336.266.309-.13.291-.312a.261.261,0,0,0-.29-.253Zm-25.077.353c.011.144.122.183.244.2.16.018.284-.058.292-.171s-.1-.205-.261-.215a.116.116,0,0,0-.024,0C633.2,1329.326,633.085,1329.406,633.093,1329.517Zm-11.535-.372c-.009.107-.01.229.116.258.058.014.148-.043.205-.09.031-.026.027-.1.039-.149-.005-.05.007-.114-.019-.15-.039-.051-.105-.116-.16-.116h0C621.585,1328.9,621.57,1329.027,621.558,1329.145Zm28.9-3.6a.345.345,0,0,0,0-.053c-.015-.171-.127-.292-.259-.27-.167.03-.194.154-.189.288a.218.218,0,0,0,0,.034l-31.5-.094-3.127-11.251a.743.743,0,0,0,.057-.1.355.355,0,0,0-.045-.313,1.09,1.09,0,0,0-.172-.169l-2.385-8.583c.057-.005.113-.011.169-.021a.26.26,0,0,0,.228-.308.257.257,0,0,0-.268-.246,1.451,1.451,0,0,0-.206.014v0l-.078.005-.375-1.35a5.339,5.339,0,0,0,2.058-1.279.968.968,0,0,0,.174.127.166.166,0,0,0,.266-.117.273.273,0,0,0-.153-.318l.03-.033,3.868,2.111c-.016.039-.029.075-.038.1.015.2.107.288.271.3a.4.4,0,0,0,.3-.1l9.709,5.3,9.446-16.354a5.392,5.392,0,0,0,3.493.011l9.346,16.41,11.791-6.342a.142.142,0,0,0,.009.07c.031.063.148.086.222.122.092-.042.182-.054.221-.105a.745.745,0,0,1,.548-.323.145.145,0,0,0,.067-.264.5.5,0,0,1-.051-.046l1.357-.73a5.333,5.333,0,0,0,2.017,1.5.487.487,0,0,0-.105-.006c-.2.015-.3.112-.282.287a.287.287,0,0,0,.337.275.267.267,0,0,0,.281-.3.275.275,0,0,0-.094-.208c.069.028.139.056.209.08l-6.34,22.284Zm-24.188-.579c.03.034.079.141.161.173.059.023.177-.034.239-.087a1.252,1.252,0,0,0,.241-.292.17.17,0,0,0-.108-.269.45.45,0,0,0-.127-.02h0A.418.418,0,0,0,626.265,1324.966Zm18.581-.451a1.15,1.15,0,0,0,.273.13c.315-.027.427-.129.435-.325s-.094-.358-.262-.356a.963.963,0,0,1-.653-.23.408.408,0,0,0-.475.021.321.321,0,0,0-.108.4.308.308,0,0,0,.365.213.553.553,0,0,1,.066,0A.579.579,0,0,1,644.846,1324.515Zm-3.3-.786c-.028.037.013.155.061.2a.428.428,0,0,0,.467-.044c.039-.052.056-.176.022-.208a1,1,0,0,0-.29-.128A.962.962,0,0,0,641.548,1323.729Zm-9.969-.219c-.048.262.159.458.523.424.032-.022.148-.065.182-.14.023-.056-.045-.168-.1-.229a1.078,1.078,0,0,0-.285-.207.261.261,0,0,0-.123-.034A.2.2,0,0,0,631.579,1323.51Zm6.388-.275a.464.464,0,0,1-.325.148c.039.3.119.391.337.374a.314.314,0,0,0,.306-.363.282.282,0,0,0-.1-.206.119.119,0,0,0-.053-.011A.277.277,0,0,0,637.967,1323.236Zm-10.463-.777a5.712,5.712,0,0,1-.468.564c-.16.165-.272.328-.157.551s.343.157.623.142a.713.713,0,0,0,.327-.1c.293-.26.551-.547.409-.984-.048-.147-.064-.307-.252-.336a.708.708,0,0,0-.122-.011A.42.42,0,0,0,627.5,1322.459Zm10.138.925s0-.005,0-.008h-.006l0,.008.009-.008-.009.008Zm8.236-.9v.009a2.063,2.063,0,0,0-.25.027.342.342,0,0,0,.134.671.983.983,0,0,0,.589-.5.179.179,0,0,0-.188-.232h-.026A2.323,2.323,0,0,0,645.878,1322.485Zm-10.627-.423a1.434,1.434,0,0,0-.312.259.394.394,0,0,0-.048.486.354.354,0,0,0,.509.01.6.6,0,0,1,.445-.19c.207-.005.271-.092.279-.3s-.058-.284-.262-.322a1.669,1.669,0,0,0-.19-.015c0-.014-.006-.028-.009-.041A2.048,2.048,0,0,0,635.251,1322.062Zm-3.834.013c-.1.127-.32.233-.232.427.068.149.2.127.324.1a.662.662,0,0,1,.161-.014c.161-.049.4.039.456-.184s-.184-.272-.314-.374a.345.345,0,0,0-.2-.092h0C631.549,1321.944,631.49,1321.988,631.417,1322.076Zm20.045-.168c-.247.025-.371.164-.343.386a.321.321,0,0,0,.392.3c.258-.019.382-.146.364-.369a.316.316,0,0,0-.348-.319Zm-7.809.122c-.055.06-.122.156-.107.22.032.138.172.139.3.124s.285-.029.29-.194c0-.059-.074-.133-.133-.175a.223.223,0,0,0-.119-.021h-.052C643.763,1322,643.683,1321.994,643.652,1322.03Zm12.891-.1c-.065.267.162.483.54.438.022-.016.134-.055.155-.122a.286.286,0,0,0-.082-.234,1.23,1.23,0,0,0-.314-.226.234.234,0,0,0-.106-.028A.2.2,0,0,0,656.543,1321.931Zm-6.4-.2c-.086.061-.122.142-.052.232a.211.211,0,0,0,.116.068.567.567,0,0,0,.123.007h.051a.939.939,0,0,0,.139-.034c.114-.046.172-.124.107-.239a.293.293,0,0,0-.25-.1A.411.411,0,0,0,650.145,1321.735Zm.051-1.083a.323.323,0,0,0-.318.373c.023.214.183.316.438.28.236-.033.346-.162.317-.369a.309.309,0,0,0-.339-.29A.635.635,0,0,0,650.2,1320.653Zm3.666-.035c-.246.025-.37.166-.342.387a.324.324,0,0,0,.4.3c.257-.02.381-.148.361-.372a.314.314,0,0,0-.346-.315A.62.62,0,0,0,653.862,1320.618Zm-15.213.1c0,.148.016.29.2.31.139.014.226-.121.229-.335,0-.149-.022-.287-.205-.309h-.023C638.729,1320.384,638.651,1320.519,638.649,1320.719Zm-11.791-1.467c-.035.009-.077.018-.129.028-.193.039-.32.12-.305.315a.554.554,0,0,1-.2.489.336.336,0,0,0-.054.445c.076.135.238.172.448.125a.281.281,0,0,0,.242-.329.4.4,0,0,1,.142-.372.392.392,0,0,0,.149-.351l.024.017a.232.232,0,0,0,.185.037.3.3,0,0,0,.112-.176.2.2,0,0,0-.032-.16c-.042-.047-.083-.1-.125-.145l.005,0c.092-.062.125-.2.157-.256-.043-.2-.1-.322-.265-.313s-.182.128-.188.25c0,.022,0,.046,0,.068v.025a.516.516,0,0,0-.233-.035v-.007l-.007.008h.007A.9.9,0,0,0,626.858,1319.252Zm-5.285,1.12c-.006.123.008.238.158.263.113.018.192-.094.2-.313a.18.18,0,0,0-.158-.216l-.023,0C621.65,1320.1,621.582,1320.208,621.573,1320.371Zm14.817-.517a1.182,1.182,0,0,0,.464.7.183.183,0,0,0,.273-.121,1.871,1.871,0,0,0,.037-.335l-.017,0a2,2,0,0,0,.009-.264.356.356,0,0,0-.383-.365h-.014A.348.348,0,0,0,636.39,1319.854Zm-2.869-.351a.179.179,0,0,0,.06.128.306.306,0,0,0-.218.364.313.313,0,0,0,.336.288,1.763,1.763,0,0,0,.248-.024v0c.071-.006.143-.009.213-.022.24-.045.339-.166.317-.375s-.149-.313-.391-.3l-.043.005a.132.132,0,0,0,.012-.031c.01-.114-.1-.207-.259-.218h-.029C633.623,1319.315,633.514,1319.393,633.521,1319.5Zm-9.483.418a.263.263,0,0,0-.043.216.268.268,0,0,0,.2.105,3.18,3.18,0,0,0,.43-.039v-.007c.072-.007.144-.014.216-.023a2.092,2.092,0,0,0,.25-.033.34.34,0,0,0-.076-.673l-.087,0h0A.992.992,0,0,0,624.038,1319.92Zm-1.125-.525c-.163.038-.185.164-.176.3.011.174.121.292.252.279s.214-.149.194-.32c-.019-.152-.113-.262-.226-.262A.193.193,0,0,0,622.913,1319.4Zm11.878.192c0,.145.112.188.234.205.157.022.285-.05.3-.161s-.092-.21-.251-.224l-.035,0C634.9,1319.405,634.788,1319.479,634.791,1319.587Zm3.961-.368a1.15,1.15,0,0,0-.228.266.174.174,0,0,0,.094.278.415.415,0,0,0,.544-.471c-.031-.033-.085-.139-.167-.166a.1.1,0,0,0-.03,0A.4.4,0,0,0,638.752,1319.219Zm20.957.061a1.356,1.356,0,0,0-.324.069.234.234,0,0,0-.125.177c.006.057.1.155.154.154a4.023,4.023,0,0,0,.674-.068.218.218,0,0,0,.122-.176.231.231,0,0,0-.156-.155.6.6,0,0,0-.121-.011h-.01C659.851,1319.27,659.777,1319.279,659.709,1319.28Zm-12.98-.933a.742.742,0,0,1-.537.3.157.157,0,0,0-.105.265c.187.153.357.359.634.362a.632.632,0,0,1,.426.144.33.33,0,0,0,.282.056c.073-.037.094-.165.132-.245-.051-.1-.069-.2-.13-.236a.8.8,0,0,1-.394-.582.158.158,0,0,0-.163-.135A.176.176,0,0,0,646.729,1318.347Zm5.5.7c.022.027.062.127.13.155.052.021.156-.039.213-.087a1,1,0,0,0,.2-.241c.076-.13.01-.246-.143-.274a.391.391,0,0,0-.071-.006h0C652.347,1318.59,652.2,1318.759,652.226,1319.044Zm-31.96-.607-.063,0a2.4,2.4,0,0,0-.278.046.292.292,0,0,0-.2.4c.049.113.175.165.259.079a.881.881,0,0,1,.481-.248.177.177,0,0,0,.094-.149.209.209,0,0,0-.134-.123.315.315,0,0,0-.1-.013Zm38.773-.117c-.141.017-.269.056-.266.221,0,.123.145.185.4.151.085-.014.219-.044.213-.212,0-.106-.105-.166-.259-.166A.729.729,0,0,0,659.039,1318.32Zm-9.236-.407c-.07.024-.161.083-.177.141a.253.253,0,0,0,.089.2,1.843,1.843,0,0,0,.381.259.444.444,0,0,0,.477-.045.351.351,0,0,0-.3-.6l-.179.02v-.01A1.348,1.348,0,0,0,649.8,1317.913Zm-10.87-.248a.323.323,0,0,0-.329.37c.02.226.169.337.419.31s.357-.148.329-.359a.342.342,0,0,0-.358-.325A.463.463,0,0,0,638.932,1317.665Zm.337-.977a.353.353,0,0,0,.1.516.767.767,0,0,1,.336.467c.055.2.174.245.388.215s.291-.116.3-.323a1.592,1.592,0,0,0-.023-.205l.05-.021a2.71,2.71,0,0,0-.233-.444,1.46,1.46,0,0,0-.333-.26.468.468,0,0,0-.266-.079A.4.4,0,0,0,639.269,1316.687Zm3.684-.762a.319.319,0,0,0-.2.161.329.329,0,0,0,.2.425.4.4,0,0,1,.232.319.579.579,0,0,0,.074.225.183.183,0,0,0,.32,0,1.155,1.155,0,0,0,.072-.255c-.068-.081-.122-.2-.216-.242a.409.409,0,0,1-.257-.375.22.22,0,0,0-.039-.13c-.05-.05-.125-.126-.176-.126Zm-22.656.834c-.081.044-.113.13-.049.19a.367.367,0,0,0,.234.077.36.36,0,0,0,.224-.1c.06-.065.015-.148-.067-.184a.7.7,0,0,0-.172-.031A.864.864,0,0,0,620.3,1316.759Zm-2.834-.376c-.214.008-.321.108-.314.292s.124.285.328.274.312-.123.3-.306a.26.26,0,0,0-.29-.26Zm1.183-.086c-.212.011-.317.112-.306.3s.129.281.334.266.31-.13.292-.311a.261.261,0,0,0-.291-.254Zm19.912.022a.271.271,0,0,0,.323.28c.206-.011.316-.118.3-.3a.261.261,0,0,0-.292-.266h-.015C638.664,1316.039,638.555,1316.138,638.557,1316.319Zm-5.161-.312a.987.987,0,0,0-.232.21c-.1.117-.048.242.1.292.232.078.438-.067.462-.383-.016-.031-.041-.135-.106-.173a.079.079,0,0,0-.041-.009A.409.409,0,0,0,633.4,1316.007Zm14.876-.128a.36.36,0,0,0,.448.3.346.346,0,0,0,.306-.437,1.186,1.186,0,0,0-.564-.621.181.181,0,0,0-.251.158,1.777,1.777,0,0,0,.013.338l.017,0A2.114,2.114,0,0,0,648.272,1315.879Zm3.376-.367c-.161,0-.273.1-.266.209s.131.191.29.177.27-.111.244-.225c-.028-.131-.129-.161-.242-.162Zm-10.032-.229c-.133.01-.285.018-.309.177a.255.255,0,0,0,.113.186c.049.035.137.022.2.029.068-.018.143-.018.179-.054s.109-.134.1-.193c-.019-.119-.113-.148-.218-.148Zm4.622.025c.018.148.064.281.249.276.139,0,.205-.154.176-.363-.022-.143-.059-.277-.233-.277h-.015C646.274,1314.95,646.207,1315.1,646.237,1315.308Zm5.211-.181c0,.05.089.135.146.14s.119-.07.222-.14c-.1-.067-.163-.139-.217-.139h-.005C651.537,1314.994,651.448,1315.077,651.448,1315.127Zm-8.474-.335c-.139.016-.272.046-.275.213,0,.127.133.193.36.167.111-.017.248-.041.251-.211,0-.111-.1-.173-.257-.173h-.018A.487.487,0,0,0,642.974,1314.792Zm-26.461-.583a.218.218,0,0,0-.158.267c.015.11.058.205.194.212.11,0,.185-.109.174-.252s-.09-.228-.19-.229Zm32.916-.642a2.022,2.022,0,0,0,.389-.172,1.454,1.454,0,0,0,.271-.3.394.394,0,0,0-.026-.487.354.354,0,0,0-.506.063.6.6,0,0,1-.41.254c-.2.034-.255.13-.23.337s.1.271.308.281c.063,0,.127-.009.19-.013C649.419,1313.54,649.424,1313.554,649.429,1313.567Zm13.823-.4c.009.074.034.19.19.19.115,0,.175-.119.158-.292-.012-.123-.044-.234-.2-.237h0C663.287,1312.831,663.229,1312.952,663.252,1313.17Zm-22.4-.909a.323.323,0,0,0-.319.374c.022.224.173.333.421.305s.366-.167.334-.392a.31.31,0,0,0-.34-.293h-.012A.659.659,0,0,0,640.852,1312.261Zm-1.834.018c-.1.126-.336.244-.2.425.07.093.29.083.442.121l.013-.048a2.3,2.3,0,0,0,.285-.031c.219-.05.261-.2.1-.348a1.617,1.617,0,0,0-.223-.171.412.412,0,0,0-.211-.094C639.16,1312.133,639.1,1312.178,639.018,1312.279Zm7.848-.162a.313.313,0,0,0-.249.4.286.286,0,0,0,.13.19.249.249,0,0,0,.21-.078.462.462,0,0,1,.3-.194c-.068-.239-.141-.334-.28-.334h-.007A.436.436,0,0,0,646.866,1312.117Zm-26.474.494c.091.05.149.106.194.1s.113-.086.108-.127a.172.172,0,0,0-.133-.1C620.515,1312.479,620.47,1312.547,620.392,1312.611Zm39.684-.681c-.205.011-.31.12-.3.3s.133.276.34.258c.189-.015.293-.12.286-.288a.277.277,0,0,0-.3-.276Zm-12.82.507,0,.009.007-.01Zm0,.009s0,0,.006,0,0-.006,0-.009Zm-4.558-3.5c-.258.021-.358.128-.344.387.01.16.05.319.054.479a.671.671,0,0,0,.341.6c.258.168.563.332.569.7,0,.038.045.083.081.111.371.292.74.586,1.118.869.173.13.337.051.34-.161a3.044,3.044,0,0,0-.043-.411l-.013,0c-.005-.046-.014-.091-.015-.137a.593.593,0,0,0-.322-.608c-.069-.033-.108-.146-.136-.229a.977.977,0,0,0-.857-.65c-.238-.014-.318-.078-.355-.305-.019-.112-.011-.229-.03-.343-.036-.22-.13-.309-.326-.309C642.741,1308.945,642.721,1308.945,642.7,1308.947Zm17.891,2.092c-.206.03-.294.123-.283.3a.272.272,0,0,0,.314.266,2.211,2.211,0,0,0,.386-.032.253.253,0,0,0,.224-.287.261.261,0,0,0-.283-.266c-.069,0-.14.009-.21.013h0C660.689,1311.03,660.639,1311.031,660.59,1311.038Zm-21.74-.49a1.757,1.757,0,0,0-.261.328.379.379,0,0,0,.037.449.409.409,0,0,0,.437.07c.186-.042.231-.182.223-.345,0-.068-.015-.136-.023-.2l.013,0a.625.625,0,0,0-.028-.2c-.037-.076-.094-.179-.162-.2a.1.1,0,0,0-.023,0A.37.37,0,0,0,638.85,1310.548Zm13.943.29a.161.161,0,0,0,.292.069,2.1,2.1,0,0,0,.257-.31.3.3,0,0,0-.042-.368.354.354,0,0,0-.363-.049.233.233,0,0,0-.174.265c0,.057.009.113.013.169h0A1.085,1.085,0,0,0,652.793,1310.837Zm-28.69-.267c-.056.012-.134.108-.126.156a.212.212,0,0,0,.167.121c.055,0,.108-.086.2-.168-.1-.05-.173-.111-.225-.111Zm6.546-2.356a1.727,1.727,0,0,0-.355.469.429.429,0,0,0,.068.378,1.694,1.694,0,0,0,.473.364.374.374,0,0,0,.575-.327c0-.057-.013-.113-.022-.2.053-.355-.263-.509-.515-.7a.178.178,0,0,0-.1-.022A.2.2,0,0,0,630.648,1308.214Zm25.111.189a2.523,2.523,0,0,0-.3.386.367.367,0,0,0,.068.445.427.427,0,0,0,.441.044c.166-.045.205-.178.2-.327,0-.068-.015-.136-.023-.2h0a1.29,1.29,0,0,0-.035-.272.2.2,0,0,0-.184-.159A.241.241,0,0,0,655.759,1308.4Zm-9.173-.554a2.883,2.883,0,0,0-.466.055.306.306,0,0,0-.259.357.319.319,0,0,0,.355.311,2.365,2.365,0,0,0,.251-.025v0c.059-.006.121-.009.179-.02.248-.044.353-.16.331-.368a.327.327,0,0,0-.365-.314Zm-11.96-.8c-.211.107-.147.312-.13.49a1.69,1.69,0,0,0,.025.2.384.384,0,0,0,.64.2.978.978,0,0,0,.115-.129c.337-.374.328-.364-.06-.667a.606.606,0,0,0-.368-.15A.482.482,0,0,0,634.626,1307.044Zm3.82.321c-.017.27.1.418.355.433a.351.351,0,0,0,.41-.381.357.357,0,0,0-.377-.416h-.014A.343.343,0,0,0,638.447,1307.365Zm-1.369-.519c-.1.074-.087.276-.126.42l.05.013a1.914,1.914,0,0,0,.033.271c.058.2.211.241.367.094a2.272,2.272,0,0,0,.183-.211c.157-.194.156-.27-.059-.418-.1-.07-.2-.216-.327-.216A.2.2,0,0,0,637.078,1306.846Zm10.078-.1c-.229.026-.349.157-.335.361a.344.344,0,0,0,.413.32c.249-.022.372-.157.346-.381a.312.312,0,0,0-.341-.305h0A.612.612,0,0,0,647.156,1306.747ZM618.8,1304.34a.233.233,0,0,0-.209.265.334.334,0,0,1-.127.3.33.33,0,0,0-.13.328.285.285,0,0,1-.155.307c-.076.05-.107.162-.136.206.031.169.071.269.209.266s.154-.1.162-.2c0-.019,0-.038,0-.057.014-.24.013-.248.256-.289.159-.027.267-.091.26-.252a.461.461,0,0,1,.179-.4.278.278,0,0,0,.058-.365.258.258,0,0,0-.246-.127A.658.658,0,0,0,618.8,1304.34Zm44.933,1.321c-.092.012-.206.027-.213.166,0,.106.105.163.273.149.115-.009.225-.031.232-.168.005-.094-.081-.148-.231-.149Zm-3.24-.431a.182.182,0,0,0-.067.1.773.773,0,0,0-.011.151.661.661,0,0,0,.027.121c.04.1.11.152.219.1s.132-.3.045-.418a.162.162,0,0,0-.129-.08A.152.152,0,0,0,660.495,1305.23Zm4.291.094c-.044.042-.094.107-.087.157.015.119.123.133.229.127s.236-.007.259-.138a.2.2,0,0,0-.088-.157c-.04-.031-.112-.022-.165-.029C664.878,1305.3,664.816,1305.3,664.786,1305.324Zm-1.426-1.224a.944.944,0,0,0-.066.209c.053.067.094.165.17.2a.34.34,0,0,1,.2.316.173.173,0,0,0,.027.107c.042.046.107.115.15.109a.259.259,0,0,0,.166-.128.27.27,0,0,0-.148-.355.327.327,0,0,1-.183-.268.473.473,0,0,0-.054-.188.158.158,0,0,0-.135-.081A.151.151,0,0,0,663.36,1304.1Zm-29.7.227c-.031.024-.142.073-.17.149-.022.058.049.165.107.224a1.21,1.21,0,0,0,.282.207.2.2,0,0,0,.319-.143c.052-.249-.121-.44-.439-.441A.943.943,0,0,0,633.661,1304.327Zm28.286-.058c-.028.031-.013.1-.017.154.013.049.01.114.042.146s.122.1.175.092c.151-.025.148-.154.14-.272s-.023-.228-.153-.238h-.006A.32.32,0,0,0,661.947,1304.268Zm4.3-.764c-.172.019-.242.088-.255.258a1.217,1.217,0,0,0,.013.17l-.041.015a2.127,2.127,0,0,0,.179.37,1.188,1.188,0,0,0,.266.224.383.383,0,0,0,.485-.03.291.291,0,0,0-.071-.428.626.626,0,0,1-.261-.392.219.219,0,0,0-.242-.192A.724.724,0,0,0,666.252,1303.5Zm-51.935-.754c-.048.172.144.229.249.317.136.113.209.109.326-.022.089-.1.27-.184.2-.346-.053-.125-.159-.111-.266-.1a.507.507,0,0,1-.131.008C614.565,1302.646,614.368,1302.568,614.318,1302.75Zm19.777-1.924c-.259.027-.341.136-.321.433a2.042,2.042,0,0,0,.038.306c.052.239.159.311.4.284s.329-.121.328-.364a1.926,1.926,0,0,0-.022-.2h0c0-.034-.006-.068-.013-.1-.043-.258-.129-.356-.327-.357A.829.829,0,0,0,634.094,1300.826Zm6.293-.127c-.078.023-.121.161-.146.2a1.138,1.138,0,0,0,.483.8c.133.049.251,0,.266-.13a.77.77,0,0,0-.32-.753.465.465,0,0,0-.251-.121A.123.123,0,0,0,640.387,1300.7Zm-3.656-3.571a.408.408,0,0,0-.127.234.368.368,0,0,0,.193.38c.159.1.312.212.468.319.13.089.173.212.059.32a.878.878,0,0,0-.2.631c.062.123.092.309.194.357.185.09.246-.121.342-.228a.168.168,0,0,0,.023-.027.913.913,0,0,1,.871-.5.315.315,0,0,0,.356-.232.4.4,0,0,0-.184-.449c-.353-.256-.7-.522-1.042-.787a.977.977,0,0,0-.521-.121h-.007A.734.734,0,0,0,636.731,1297.128Zm32.969,4.967a4.082,4.082,0,1,1,4.024-5.12l-.214.02c-.119.009-.23.06-.239.176a.439.439,0,0,0,.069.311,5.066,5.066,0,0,0,.518.447c0,.032,0,.064,0,.1a4,4,0,0,1-.443,1.815.37.37,0,0,1-.094,0c-.134.035-.331-.042-.383.14-.043.157.113.218.22.293a4.14,4.14,0,0,1-1.676,1.42l-.105.011v0c-.058,0-.118,0-.176.013-.152.023-.237.086-.263.193a4.229,4.229,0,0,1-1.235.183Zm3.308-3.365c-.026.018-.122.049-.153.112-.022.044.031.14.078.191a.891.891,0,0,0,.229.177.166.166,0,0,0,.265-.118c.044-.2-.1-.363-.371-.364Zm-2.85-2.569c.023.029.064.116.13.141a.25.25,0,0,0,.2-.069,6.528,6.528,0,0,0,.447-.487c.037-.044.068-.137.044-.173a.272.272,0,0,0-.186-.1h-.013A.785.785,0,0,0,670.158,1296.16Zm-59.946,5.757a4.117,4.117,0,0,1-4.137-4.094,4.012,4.012,0,0,1,.753-2.328c.291-.017.582-.035.872-.066.2-.02.266-.1.262-.279a5.906,5.906,0,0,0-.045-.592.52.52,0,0,0-.022-.1,4.18,4.18,0,0,1,6.222,1.967.543.543,0,0,0-.225.021c-.077.029-.113.152-.139.19a.878.878,0,0,0,.461.546.222.222,0,0,0,.1-.01,3.964,3.964,0,0,1,.059.674,4.118,4.118,0,0,1-4.152,4.07Zm1.318-2.992c.024.028.064.116.13.141a.25.25,0,0,0,.2-.069,6.512,6.512,0,0,0,.447-.486c.037-.044.068-.137.044-.173a.267.267,0,0,0-.186-.1h-.013A.787.787,0,0,0,611.53,1298.926Zm28.459-7.5a4.157,4.157,0,0,1-3.607-2.089.357.357,0,0,0,.031-.2.306.306,0,0,0-.273-.307,4,4,0,0,1-.288-1.5,4.151,4.151,0,1,1,4.151,4.093Zm1.191-3.664a.35.35,0,0,0,.387.374.345.345,0,0,0,.38-.378.34.34,0,0,0-.365-.39h-.027A.347.347,0,0,0,641.18,1287.763Zm-.751-.757a.3.3,0,0,0,.316.339.287.287,0,0,0,.316-.306.291.291,0,0,0-.3-.353h-.029C640.544,1286.686,640.438,1286.8,640.428,1287.006Zm1.543-3.111c-.208.014-.31.122-.294.308s.136.274.345.255a.272.272,0,0,0,.28-.321.26.26,0,0,0-.288-.244Zm-2.6.167a.317.317,0,1,0,.625.1.292.292,0,0,0-.278-.374l-.047,0A.283.283,0,0,0,639.372,1284.062Z"/>
  </g>
</svg>
