<svg xmlns="http://www.w3.org/2000/svg" width="36" height="39.082" viewBox="0 0 36 39.082">
  <path id="Path_307" data-name="Path 307" d="M672.189,270.749a10.165,10.165,0,0,0-8.3-2.218,10.032,10.032,0,0,0-8.142,8.07,10.148,10.148,0,0,0,1.556,7.534c.578.856,1.088,1.523,1.539,2.112,1.414,1.849,2.06,2.692,2.06,5.741a2.043,2.043,0,0,0,2.041,2.041h5.5a2.055,2.055,0,0,0,2.052-2.052c0-3.073.648-3.92,2.067-5.778.432-.564.92-1.2,1.474-2.012a10.11,10.11,0,0,0-1.839-13.438ZM673,283.485c-.535.782-1.013,1.407-1.435,1.959a8.605,8.605,0,0,0-2.324,6.534.808.808,0,0,1-.807.807h-5.5a.8.8,0,0,1-.8-.8,8.648,8.648,0,0,0-2.316-6.5c-.441-.575-.94-1.227-1.5-2.052a8.913,8.913,0,0,1-1.363-6.617,8.783,8.783,0,0,1,7.128-7.065,9.144,9.144,0,0,1,1.562-.134A8.862,8.862,0,0,1,673,283.485ZM669.379,295.5a.623.623,0,0,1-.623.622h-6.15a.622.622,0,1,1,0-1.244h6.15A.623.623,0,0,1,669.379,295.5Zm0,2.041a.623.623,0,0,1-.623.622h-6.15a.622.622,0,0,1,0-1.245h6.15A.623.623,0,0,1,669.379,297.545Zm-1.47,2.064a.622.622,0,0,1-.622.622h-3.21a.622.622,0,0,1,0-1.244h3.21A.622.622,0,0,1,667.908,299.608ZM665.15,271.87a.621.621,0,0,1-.507.719,5.947,5.947,0,0,0-4.828,4.785.622.622,0,0,1-.612.511.659.659,0,0,1-.111-.01.622.622,0,0,1-.5-.723,7.2,7.2,0,0,1,5.841-5.789A.622.622,0,0,1,665.15,271.87Zm-12.831,7.9H648.3a.622.622,0,0,1,0-1.244h4.023a.622.622,0,0,1,0,1.244Zm2.327,5.744a.623.623,0,0,1-.227.85l-3.484,2.012a.622.622,0,1,1-.622-1.077l3.484-2.012A.622.622,0,0,1,654.647,285.515Zm26.615,2.634a.621.621,0,0,1-.85.228l-3.484-2.012a.622.622,0,0,1,.622-1.078l3.484,2.012A.622.622,0,0,1,681.262,288.149Zm2.412-9a.622.622,0,0,1-.622.622h-4.023a.622.622,0,1,1,0-1.244h4.023A.622.622,0,0,1,683.674,279.149Zm-6.973-6.366a.623.623,0,0,1,.228-.85l3.484-2.011a.622.622,0,0,1,.623,1.077l-3.484,2.012a.622.622,0,0,1-.85-.228Zm-4.888-5.511,2.012-3.484a.622.622,0,1,1,1.077.623l-2.012,3.484a.622.622,0,1,1-1.077-.623Zm-6.761-1.478v-4.023a.622.622,0,0,1,1.245,0v4.023a.622.622,0,0,1-1.245,0Zm-8.606-1.384a.622.622,0,1,1,1.078-.623l2.012,3.484a.622.622,0,0,1-1.078.623Zm-1.8,8.372a.622.622,0,0,1-.85.228L650.313,271a.622.622,0,0,1,.622-1.077l3.484,2.011A.623.623,0,0,1,654.647,272.783Z" transform="translate(-647.674 -261.149)" fill="#3e6a45"/>
</svg>
