<svg xmlns="http://www.w3.org/2000/svg" width="35" height="35" viewBox="0 0 35 35">
  <path id="Path_306" data-name="Path 306" d="M586.155,271.933l-4.148,5.53h6.913a.626.626,0,1,1,0,1.252h-8.165a.631.631,0,0,1-.211-.04.64.64,0,0,1-.159-.083l-.005,0c-.008-.006-.011-.015-.019-.021a.622.622,0,0,1-.127-.142.665.665,0,0,1-.036-.07.7.7,0,0,1-.036-.07l-2.722-8.165a.626.626,0,0,1,1.188-.4l2.344,7.031,4.182-5.576a.626.626,0,1,1,1,.751Zm-20.64,6.782H577.49a.626.626,0,0,0,0-1.252H565.515a.626.626,0,1,0,0,1.252Zm12.8,14.09a14,14,0,0,0,2.581,1.242,4.978,4.978,0,1,1-.22,1.46c0-.071.008-.139.011-.209a15.261,15.261,0,0,1-3.472-1.7,15.346,15.346,0,0,1-3.462,1.705c0,.069.01.136.01.205a4.983,4.983,0,1,1-.219-1.46,14.083,14.083,0,0,0,7.012-5.534h-6.67a14.079,14.079,0,0,0,1.283,1.678.626.626,0,1,1-.934.834,15.428,15.428,0,0,1-1.821-2.513h-1.454a9.346,9.346,0,0,1-9.336-9.335v-1.089a2.1,2.1,0,0,0-2.1-2.1h-1.089a.626.626,0,1,1,0-1.252h1.089a3.351,3.351,0,0,1,3.348,3.348v1.089a8.092,8.092,0,0,0,8.083,8.083h12.519a8.092,8.092,0,0,0,8.083-8.083v-1.089a11.361,11.361,0,0,0-11.348-11.349h-4.9a.626.626,0,1,1,0-1.252h4.9a12.615,12.615,0,0,1,12.6,12.6v1.089a9.345,9.345,0,0,1-9.335,9.335H582.02A15.33,15.33,0,0,1,578.312,292.8Zm-5.811,2.862a15.248,15.248,0,0,1-2.81.435,1.091,1.091,0,1,1-.046-1.251,14.045,14.045,0,0,0,2.7-.434,3.738,3.738,0,1,0,.156,1.25Zm9.589-1.251a14.065,14.065,0,0,0,2.7.433,1.087,1.087,0,1,1-.049,1.251,15.314,15.314,0,0,1-2.809-.431,3.715,3.715,0,1,0,.156-1.253Z" transform="translate(-557.812 -265.488)" fill="#3e6a45"/>
</svg>
