<svg xmlns="http://www.w3.org/2000/svg" width="34" height="41.402" viewBox="0 0 34 41.402">
  <path id="Path_300" data-name="Path 300" d="M419.341,300.914a1.105,1.105,0,1,1-1.1-1.138A1.123,1.123,0,0,1,419.341,300.914Zm-1.3-3.21a1.325,1.325,0,1,0-1.287-1.324A1.307,1.307,0,0,0,418.043,297.7Zm5.064-1.741a1.138,1.138,0,1,0,1.105,1.138A1.123,1.123,0,0,0,423.107,295.964Zm-18.146,3.558-2.4-.464,1.479-8.134-1.231-.238-1.479,8.134-2.455-.474.828-3.963-1.224-.272-1.1,5.259,8.6,1.66,1.237-7.328-1.234-.221Zm10.608-12.966L413.5,302.48l-5.064-.977.936-6.2,1.238.2-.75,4.968,2.572.5,1.773-13.634L394.8,283.587l-3.367,14.659-1.219-.3,3.579-15.578a10.221,10.221,0,0,1,8.846-7.7l2.219-3.354,1.862-10.235,1.231.237-1.845,10.14,1.731.334,1.845-10.139,1.231.237-1.845,10.14h.005l.892,4.05A10.722,10.722,0,0,1,415.569,286.556ZM404.044,274.83l4.553.877-.565-2.568-2.545-.491Zm-7.223,4.329,17.031,3.284a9.311,9.311,0,0,0-4.614-5.3l-6.292-1.212A8.852,8.852,0,0,0,396.821,279.159Zm17.4,4.667L396,280.313a8.821,8.821,0,0,0-.892,2.022l19.24,3.711A8.758,8.758,0,0,0,414.221,283.826Zm-20.412,14.921,1.221.292,1.833-8.115-1.22-.293Z" transform="translate(-390.212 -261.078)" fill="#3e6a45"/>
</svg>
