<svg xmlns="http://www.w3.org/2000/svg" xmlns:xlink="http://www.w3.org/1999/xlink" width="39" height="39" viewBox="0 0 39 39">
  <defs>
    <style>
      .cls-1 {
        fill: none;
      }

      .cls-2 {
        fill: #bebebe;
      }

      .cls-3 {
        clip-path: url(#clip-path);
      }

      .cls-4 {
        fill: #323232;
      }
    </style>
    <clipPath id="clip-path">
      <rect id="Rectangle_21" data-name="Rectangle 21" class="cls-1" width="39" height="39"/>
    </clipPath>
  </defs>
  <g id="ベクトルスマートオブジェクト" transform="translate(-498 -3340)">
    <g id="ベクトルスマートオブジェクト-2" data-name="ベクトルスマートオブジェクト" transform="translate(498 3340)">
      <g id="Group_42" data-name="Group 42">
        <g id="Group_41" data-name="Group 41" class="cls-3">
          <path id="Path_147" data-name="Path 147" class="cls-4" d="M27.9,39H11.1A11.112,11.112,0,0,1,0,27.9V11.1A11.112,11.112,0,0,1,11.1,0H27.9A11.113,11.113,0,0,1,39,11.1V27.9A11.112,11.112,0,0,1,27.9,39M11.1,3.343A7.766,7.766,0,0,0,3.343,11.1V27.9A7.766,7.766,0,0,0,11.1,35.657H27.9A7.766,7.766,0,0,0,35.657,27.9V11.1A7.766,7.766,0,0,0,27.9,3.343Z"/>
          <path id="Path_148" data-name="Path 148" class="cls-4" d="M19.5,29.486A9.986,9.986,0,1,1,29.486,19.5,10,10,0,0,1,19.5,29.486m0-16.629A6.643,6.643,0,1,0,26.143,19.5,6.651,6.651,0,0,0,19.5,12.857"/>
          <path id="Path_149" data-name="Path 149" class="cls-4" d="M32.314,8.943a2.4,2.4,0,1,1-2.4-2.4,2.4,2.4,0,0,1,2.4,2.4"/>
        </g>
      </g>
    </g>
    <path id="Color_Overlay" data-name="Color Overlay" class="cls-2" d="M509.1,3379a11.112,11.112,0,0,1-11.1-11.1v-16.8a11.113,11.113,0,0,1,11.1-11.1h16.8a11.112,11.112,0,0,1,11.1,11.1v16.8a11.112,11.112,0,0,1-11.1,11.1Zm-7.757-27.9v16.8a7.766,7.766,0,0,0,7.757,7.757h16.8a7.765,7.765,0,0,0,7.757-7.757v-16.8a7.765,7.765,0,0,0-7.757-7.756H509.1A7.766,7.766,0,0,0,501.342,3351.1Zm6.171,8.4a9.986,9.986,0,1,1,9.986,9.986A10,10,0,0,1,507.514,3359.5Zm3.343,0a6.643,6.643,0,1,0,6.644-6.643A6.651,6.651,0,0,0,510.856,3359.5Zm14.657-10.557a2.4,2.4,0,1,1,2.4,2.4A2.4,2.4,0,0,1,525.514,3348.943Z"/>
  </g>
</svg>
