<svg xmlns="http://www.w3.org/2000/svg" xmlns:xlink="http://www.w3.org/1999/xlink" width="52" height="58" viewBox="0 0 52 58">
  <defs>
    <style>
      .cls-1, .cls-3, .cls-4, .cls-5, .cls-6 {
        fill: none;
        stroke: #a7a7a7;
      }

      .cls-2 {
        clip-path: url(#clip-path);
      }

      .cls-3 {
        stroke-miterlimit: 10;
      }

      .cls-3, .cls-5 {
        stroke-width: 1.821px;
      }

      .cls-4, .cls-5, .cls-6 {
        stroke-linecap: round;
        stroke-linejoin: round;
      }

      .cls-4 {
        stroke-width: 1.797px;
      }

      .cls-6 {
        stroke-width: 1.846px;
      }
    </style>
    <clipPath id="clip-path">
      <rect id="Rectangle_13" data-name="Rectangle 13" class="cls-1" width="52" height="58" transform="translate(0 0)"/>
    </clipPath>
  </defs>
  <g id="ベクトルスマートオブジェクト" transform="translate(-1095 -110)">
    <g id="ベクトルスマートオブジェクト-2" data-name="ベクトルスマートオブジェクト" transform="translate(1095 110)">
      <g id="Group_40" data-name="Group 40">
        <g id="Group_39" data-name="Group 39" class="cls-2">
          <path id="Path_189" data-name="Path 189" class="cls-3" d="M39.713,25.726A13.68,13.68,0,0,0,12.541,23.1a14.423,14.423,0,0,0,2.109,10.5C18.1,38.852,20,39.425,20,45.767a2.077,2.077,0,0,0,2.049,2.106h7.937a2.093,2.093,0,0,0,2.064-2.122c0-6.3,1.808-6.882,5.273-12.081A14.288,14.288,0,0,0,39.713,25.726Z"/>
          <line id="Line_25" data-name="Line 25" class="cls-4" x2="8.883" transform="translate(21.569 50.985)"/>
          <line id="Line_26" data-name="Line 26" class="cls-4" x2="8.883" transform="translate(21.569 54.014)"/>
          <line id="Line_27" data-name="Line 27" class="cls-4" x2="4.637" transform="translate(23.692 57.077)"/>
          <path id="Path_190" data-name="Path 190" class="cls-5" d="M24.358,16.067a9.6,9.6,0,0,0-7.7,7.846"/>
          <line id="Line_28" data-name="Line 28" class="cls-4" x2="5.811" transform="translate(0.898 26.713)"/>
          <line id="Line_29" data-name="Line 29" class="cls-5" y1="2.985" x2="5.032" transform="translate(4.262 36.623)"/>
          <line id="Line_30" data-name="Line 30" class="cls-5" x1="5.032" y1="2.985" transform="translate(42.706 36.623)"/>
          <line id="Line_31" data-name="Line 31" class="cls-4" x1="5.811" transform="translate(45.29 26.713)"/>
          <line id="Line_32" data-name="Line 32" class="cls-5" x1="5.032" y2="2.986" transform="translate(42.706 13.818)"/>
          <line id="Line_33" data-name="Line 33" class="cls-5" x1="2.906" y2="5.17" transform="translate(35.645 4.379)"/>
          <line id="Line_34" data-name="Line 34" class="cls-6" y2="5.97" transform="translate(26 0.923)"/>
          <line id="Line_35" data-name="Line 35" class="cls-5" x2="2.906" y2="5.17" transform="translate(13.449 4.379)"/>
          <line id="Line_36" data-name="Line 36" class="cls-5" x2="5.032" y2="2.986" transform="translate(4.262 13.818)"/>
        </g>
      </g>
    </g>
  </g>
</svg>
