<svg xmlns="http://www.w3.org/2000/svg" xmlns:xlink="http://www.w3.org/1999/xlink" width="55" height="48" viewBox="0 0 55 48">
  <defs>
    <style>
      .cls-1, .cls-3, .cls-4 {
        fill: none;
        stroke: #a7a7a7;
        stroke-width: 2px;
      }

      .cls-2 {
        clip-path: url(#clip-path);
      }

      .cls-3, .cls-4 {
        stroke-linejoin: round;
      }

      .cls-4 {
        stroke-linecap: round;
      }
    </style>
    <clipPath id="clip-path">
      <rect id="Rectangle_19" data-name="Rectangle 19" class="cls-1" width="55" height="48" transform="translate(0 0)"/>
    </clipPath>
  </defs>
  <g id="ベクトルスマートオブジェクト" transform="translate(-613 -117)">
    <g id="ベクトルスマートオブジェクト-2" data-name="ベクトルスマートオブジェクト" transform="translate(613 117)">
      <g id="Group_52" data-name="Group 52">
        <g id="Group_51" data-name="Group 51" class="cls-2">
          <path id="Path_235" data-name="Path 235" class="cls-3" d="M11.121,2.941C7.4,2.455,3.961,1.838.139,1.174"/>
          <path id="Path_236" data-name="Path 236" class="cls-3" d="M35.971,3.657c-2.649.192-5.375.306-8.443.306-4.773,0-8.8-.221-12.508-.586"/>
          <path id="Path_237" data-name="Path 237" class="cls-3" d="M54.877,1.178c-4.968.765-9.695,1.588-14.976,2.139"/>
          <line id="Line_65" data-name="Line 65" class="cls-4" y1="7.435" transform="translate(15.024 0.806)"/>
          <line id="Line_66" data-name="Line 66" class="cls-4" y1="7.435" transform="translate(39.871 0.806)"/>
          <path id="Path_238" data-name="Path 238" class="cls-4" d="M27.374,13.783A7.453,7.453,0,0,1,19.886,8.81l-9.81.406-5.9,12.13L13.35,24.5V47.194l27.964-.012V24.5l9.525-3.157L44.875,9.216l-10.1-.406a7.45,7.45,0,0,1-7.487,4.974"/>
          <line id="Line_67" data-name="Line 67" class="cls-4" y1="6.201" x2="1.079" transform="translate(13.356 19.398)"/>
          <line id="Line_68" data-name="Line 68" class="cls-4" x1="1.08" y1="6.201" transform="translate(40.17 19.398)"/>
        </g>
      </g>
    </g>
  </g>
</svg>
