<svg xmlns="http://www.w3.org/2000/svg" width="67.814" height="53.941" viewBox="0 0 67.814 53.941">
  <g id="no." transform="translate(-528.062 -1792.253)">
    <g id="ベクトルスマートオブジェクト_のコピー" data-name="ベクトルスマートオブジェクト のコピー">
      <g id="ベクトルスマートオブジェクト_のコピー-2" data-name="ベクトルスマートオブジェクト のコピー" transform="matrix(1, 0.003, -0.003, 1, 468.516, 1759.595)">
        <g id="Group_29" data-name="Group 29">
          <path id="Path_139" data-name="Path 139" d="M112.7,82.448a.357.357,0,0,1,.045-.383.293.293,0,0,1,.084-.062l1.306-4.49h-1.772c-.016.108-.109.139-.216.148-.166.017-.28-.035-.282-.138,0,0,0-.006,0-.01H102.6a.34.34,0,0,1-.329.4.359.359,0,0,1-.437-.354c0-.016,0-.03,0-.045h-19.6a.486.486,0,0,1,.018.07c.023.136.034.273.05.41h.01a2.959,2.959,0,0,1,.045.41c-.005.21-.169.282-.345.153q-.544-.4-1.075-.811a.176.176,0,0,1-.066-.232H77.3v0a.755.755,0,0,1-.033.148.186.186,0,0,1-.08.088.143.143,0,0,1-.2-.082.306.306,0,0,1-.027-.155H74.207a.692.692,0,0,1,.019.1c.007.056.01.112.014.168h.014a.416.416,0,0,1,.009.139c-.019.067-.042.159-.094.186a.235.235,0,0,1-.205-.04.485.485,0,0,0-.373-.129.233.233,0,0,1-.185-.095c-.021-.05.021-.139.06-.2a.893.893,0,0,1,.115-.129h-.553l.632,2.246a.8.8,0,0,0,.4-.227c.046-.045.136-.044.234-.072.067.047.18.085.2.152a.274.274,0,0,1-.094.231.532.532,0,0,0-.2.339.669.669,0,0,1-.316.4l.691,2.456h1.645a.169.169,0,0,1,.036-.1c.048-.044.127-.1.181-.085a.161.161,0,0,1,.135.181h1.286a.316.316,0,0,1,.071-.36.8.8,0,0,0,.31-.518c.024-.143.2-.2.364-.166s.252.15.227.423a.93.93,0,0,1-.161.21.458.458,0,0,0-.2.34.386.386,0,0,1-.014.071h10.5c.141-.22.106-.365-.125-.552-.156-.126-.323-.238-.481-.361a.394.394,0,0,1-.144-.461.388.388,0,0,1,.417-.207.262.262,0,0,1,.279.222.672.672,0,0,0,.323.469.393.393,0,0,1,.157.291.769.769,0,0,0,.217.6h22.924Zm-37.82-.962c-.12.027-.226-.067-.263-.217a.868.868,0,0,1-.152.008.355.355,0,0,1-.166-.047.674.674,0,0,1-.039-.752,2.505,2.505,0,0,0,.225-.25.377.377,0,0,1,.4-.108c.046.022.105.082.1.12a.209.209,0,0,1-.1.149,1.093,1.093,0,0,1-.231.039c-.139.031-.178.123-.086.225a1.7,1.7,0,0,0,.246.2,1.088,1.088,0,0,1,.167.115.228.228,0,0,1,.07.167s0,.005-.006.008v0A.27.27,0,0,1,74.885,81.486Zm.72-2.993c-.057.047-.145.1-.2.09-.126-.029-.126-.15-.116-.258s.026-.245.179-.248c.054,0,.122.064.161.116.027.036.015.1.02.15C75.632,78.4,75.637,78.467,75.605,78.493Zm1.17,2.132c-.255-.022-.341-.11-.335-.323.007-.234.105-.319.369-.317.042,0,.085.005.127.008v0a1.74,1.74,0,0,1,.19.014c.194.036.263.114.265.291,0,.2-.074.3-.267.323A1.634,1.634,0,0,1,76.776,80.625Zm.547,1.3a.294.294,0,0,1-.335-.292A1.6,1.6,0,0,1,77,81.417h-.008a1.548,1.548,0,0,1,.02-.248.164.164,0,0,1,.24-.122.86.86,0,0,1,.364.583A.279.279,0,0,1,77.323,81.927Zm2.393-.545a.566.566,0,0,1-.167-.033.167.167,0,0,1-.008-.3.5.5,0,0,1,.17-.048c.2-.029.331.032.346.155S79.955,81.363,79.715,81.382Zm.632-2.157a.768.768,0,0,0-.506.295,1.147,1.147,0,0,1-.855.132.423.423,0,0,1-.161-.212,1.113,1.113,0,0,1-.034-.306.446.446,0,0,0-.248-.427.458.458,0,0,1-.14-.106.346.346,0,0,1,.2-.586l.359-.038v-.008c.144-.009.288-.02.433-.025a.346.346,0,0,1,.358.182.315.315,0,0,1-.064.382l-.025.025c-.091.091-.211.18-.108.322.085.117.213.073.331.055s.261-.042.393-.052.224.03.247.152A.181.181,0,0,1,80.347,79.226ZM81.8,82.169c-.136-.015-.165-.115-.174-.213,0-.151.081-.266.187-.252.135.018.165.12.173.228C82,82.073,81.915,82.182,81.8,82.169Zm1.524.176A.3.3,0,0,1,83.019,82a.317.317,0,1,1,.631.046A.287.287,0,0,1,83.327,82.345Zm1.23-1.163a.647.647,0,0,0-.435.265.458.458,0,0,1-.6.113.393.393,0,0,1,0-.58,1.341,1.341,0,0,0,.162-.182.542.542,0,0,1,.508-.264c.1,0,.192-.013.287-.006a.332.332,0,0,1,.353.316A.3.3,0,0,1,84.557,81.182Zm.5-1.462a.509.509,0,0,1-.117.335.42.42,0,0,1-.476.007c-.133-.078-.258-.169-.383-.259a.362.362,0,0,1-.157-.395c.034-.16.162-.217.316-.238.072-.01.144-.016.216-.023l0-.014.216-.023a.282.282,0,0,1,.341.235A1.28,1.28,0,0,1,85.054,79.719Zm.338.577a.373.373,0,0,1-.252-.134c-.028-.041.045-.159.09-.232a.344.344,0,0,1,.139-.123c.079-.038.194-.1.245-.071.07.04.095.157.112.191C85.7,80.189,85.579,80.311,85.392,80.3Zm.337-1.509a1.386,1.386,0,0,1,.321-.439.218.218,0,0,1,.163-.041,1.069,1.069,0,0,1,.585.643c-.029.047-.068.2-.16.237a.979.979,0,0,1-.444.021c-.061-.006-.117-.075-.17-.12C85.913,78.994,85.678,78.959,85.729,78.787Zm.392.754c0-.115.127-.189.286-.174s.264.113.246.227-.149.181-.3.157C86.229,79.732,86.124,79.683,86.121,79.54Zm1.052,1.393a.253.253,0,0,1-.206.1.6.6,0,0,1-.282-.112,1.02,1.02,0,0,1-.235-.249c-.042-.061-.086-.166-.06-.217.034-.067.136-.1.213-.153a1.506,1.506,0,0,1,.268.141,1.37,1.37,0,0,1,.255.274A.264.264,0,0,1,87.173,80.933Zm-.108-2.074c-.122-.014-.233-.053-.245-.2-.01-.117.114-.2.274-.19s.269.1.262.215S87.225,78.877,87.065,78.859Zm2.062,2.654c-.159-.007-.272-.1-.264-.211s.111-.18.256-.178.276.086.282.2S89.289,81.52,89.128,81.513Zm6.785-.148c-.284.049-.572.069-.86.1l0-.014c-.227.024-.454.056-.682.071-.261.017-.357-.052-.4-.293a6.745,6.745,0,0,1-.082-.718c-.013-.222.068-.316.305-.349.369-.051.741-.088,1.113-.122.3-.028.474.2.668.357.094.078.021.221-.129.253s-.287.029-.43.049-.33.015-.312.205.2.167.343.157a2.486,2.486,0,0,1,.431-.026c.074.008.139.1.208.148C96.029,81.246,95.98,81.353,95.912,81.365Zm1.217-1.179c-.235.026-.377-.068-.413-.275a.327.327,0,0,1,.319-.4c.252-.034.4.068.433.291S97.38,80.158,97.13,80.186Zm3.038-.771c-.133.163-.282.315-.423.473-.064.072-.154.125-.231.06-.159-.132-.38-.221-.4-.462a.327.327,0,0,0-.176-.278.313.313,0,0,1-.17-.385c.047-.175.2-.184.355-.195l.059,0v0c.059,0,.118-.013.178-.013.194,0,.243.037.295.211.082.275.082.271.39.3a.261.261,0,0,1,.189.1A.242.242,0,0,1,100.168,79.415Zm1.618-.134c-.209.015-.292-.053-.328-.275-.007-.046-.008-.094-.012-.141h-.005a1.487,1.487,0,0,1,0-.2c.019-.157.1-.219.28-.233s.272.034.31.191a1.61,1.61,0,0,1,.036.336C102.071,79.183,101.994,79.265,101.786,79.281Zm.943,2.643a1.527,1.527,0,0,1-.259.326.318.318,0,0,1-.238.093.275.275,0,0,1-.155-.2.614.614,0,0,1,.07-.322,1.121,1.121,0,0,1,.235-.3c.061-.057.17-.125.235-.107.083.022.143.124.218.2A1.585,1.585,0,0,1,102.729,81.924Zm.92-.4a.268.268,0,0,1-.241-.291c0-.134.03-.256.192-.287.13-.025.242.1.257.27S103.782,81.518,103.648,81.522Zm1.176.568c-.131.015-.243-.1-.255-.276-.01-.133.012-.259.173-.3.132-.034.25.082.273.254S104.957,82.075,104.824,82.09Zm.292-2.415c-.07.014-.143.017-.232.026-.417.124-.655-.185-.9-.415-.2-.189-.052-.469.221-.552a1.064,1.064,0,0,1,1.122.344A.344.344,0,0,1,105.116,79.674Zm3.41,1.941c-.075.149-.227.153-.372.157a.268.268,0,0,1-.284-.217c-.028-.1-.04-.2-.059-.3h0a.354.354,0,0,1-.022-.134c.023-.094.036-.225.1-.264s.2.011.28.06a1.345,1.345,0,0,1,.315.279A.37.37,0,0,1,108.526,81.616Zm.638,0c-.124.028-.241-.108-.252-.278s.075-.288.194-.283c.169.007.206.132.231.262C109.338,81.446,109.33,81.577,109.164,81.614Zm.159-1.193a.267.267,0,0,1-.293-.282c0-.181.107-.28.321-.286a.265.265,0,0,1,.307.266C109.669,80.31,109.545,80.422,109.323,80.42Zm2.6-1.621c-.207.016-.325-.077-.336-.265s.094-.288.3-.3a.266.266,0,0,1,.321.251C112.235,78.669,112.129,78.784,111.928,78.8Z" fill="#1a1311"/>
          <path id="Path_140" data-name="Path 140" d="M68,47.05a4.031,4.031,0,0,0-.061-.674.229.229,0,0,1-.1.01.876.876,0,0,1-.463-.545c.025-.038.062-.162.138-.191a.532.532,0,0,1,.225-.02,4.18,4.18,0,0,0-6.228-1.95.521.521,0,0,1,.022.1,5.544,5.544,0,0,1,.047.593c0,.183-.065.259-.261.28-.29.031-.581.051-.872.069a4.014,4.014,0,0,0-.745,2.33,4.151,4.151,0,0,0,8.3,0Zm-2.066.67c-.14.168-.288.332-.445.487a.249.249,0,0,1-.2.071c-.067-.025-.108-.113-.132-.141a.781.781,0,0,1,.633-.688.271.271,0,0,1,.187.1C66.006,47.583,65.975,47.676,65.938,47.72Z" fill="#1a1311"/>
          <path id="Path_141" data-name="Path 141" d="M89.742,37.972a.307.307,0,0,1,.274.307.361.361,0,0,1-.03.2A4.158,4.158,0,0,0,93.6,40.554a4.082,4.082,0,1,0-4.15-4.082A4,4,0,0,0,89.742,37.972Zm5.817-4.957c.193-.014.307.069.33.241a.272.272,0,0,1-.279.322c-.208.02-.329-.069-.345-.255S95.35,33.03,95.558,33.015Zm-.38,3.476a.341.341,0,0,1,.367.388.384.384,0,1,1-.367-.388Zm-.821-.681a.291.291,0,0,1,.3.352.287.287,0,0,1-.315.307.3.3,0,0,1-.317-.338C94.033,35.911,94.149,35.8,94.357,35.81Zm-1.4-2.62a.287.287,0,0,1,.346-.277.291.291,0,0,1,.28.372.317.317,0,1,1-.626-.095Z" fill="#1a1311"/>
          <path id="Path_142" data-name="Path 142" d="M121.04,52.256a.272.272,0,0,1,.093.207.266.266,0,0,1-.28.3.287.287,0,0,1-.337-.274c-.017-.175.078-.271.281-.288a.446.446,0,0,1,.106.006,5.335,5.335,0,0,1-2.022-1.5l-1.354.734a.637.637,0,0,0,.051.046.144.144,0,0,1-.065.263.744.744,0,0,0-.547.325c-.038.051-.128.064-.221.106-.073-.036-.191-.058-.222-.121a.143.143,0,0,1-.009-.07l-11.771,6.377-9.4-16.381a5.384,5.384,0,0,1-3.493,0l-9.4,16.382L72.73,53.1a.4.4,0,0,1-.3.1c-.164-.006-.256-.093-.272-.295.009-.02.02-.056.037-.095l-3.874-2.1-.03.033a.272.272,0,0,1,.154.317.167.167,0,0,1-.265.118A.985.985,0,0,1,68,51.05a5.341,5.341,0,0,1-2.053,1.286l.379,1.348.078,0v0a1.709,1.709,0,0,1,.206-.014.279.279,0,0,1,.042.553c-.056.01-.112.017-.169.022L68.9,62.819a1.056,1.056,0,0,1,.172.168.353.353,0,0,1,.046.313.709.709,0,0,1-.056.1L72.22,74.639h31.5c0-.011,0-.023,0-.035,0-.134.022-.258.188-.288.132-.023.245.1.26.269a.41.41,0,0,1,0,.053h10.807l6.272-22.3C121.177,52.312,121.109,52.283,121.04,52.256Zm-52.5-.012c-.116.132-.189.137-.326.023-.1-.087-.3-.143-.249-.315s.247-.1.381-.141c.138.015.321-.092.4.086C68.808,52.06,68.627,52.143,68.537,52.245Zm5.7,9.418a.172.172,0,0,1,.133.1c.005.04-.061.117-.108.126s-.1-.048-.195-.1C74.144,61.731,74.19,61.663,74.236,61.662ZM70.23,63.884c-.137-.006-.179-.1-.194-.212a.216.216,0,0,1,.158-.266c.108-.014.2.084.21.227S70.341,63.888,70.23,63.884Zm.935,2.257c-.2.013-.321-.084-.329-.273s.1-.283.313-.292a.266.266,0,0,1,.314.259C71.477,66.017,71.37,66.128,71.165,66.141Zm1.2-.09c-.206.016-.324-.078-.335-.265s.093-.287.305-.3a.266.266,0,0,1,.32.252C72.671,65.92,72.564,66.035,72.362,66.05Zm.4-12.043a.459.459,0,0,0-.177.4c.007.161-.1.225-.259.252-.243.041-.241.049-.255.289,0,.019,0,.038,0,.057-.008.1-.035.2-.161.2s-.179-.1-.21-.264c.028-.046.059-.157.135-.207a.287.287,0,0,0,.154-.307.329.329,0,0,1,.129-.329.336.336,0,0,0,.126-.3.233.233,0,0,1,.208-.266c.174-.034.306,0,.366.114A.277.277,0,0,1,72.762,54.007Zm1.395,13.9a.89.89,0,0,0-.48.251c-.085.085-.21.034-.259-.079a.294.294,0,0,1,.2-.405,2.633,2.633,0,0,1,.279-.046.775.775,0,0,1,.219.007.209.209,0,0,1,.135.123A.176.176,0,0,1,74.157,67.9Zm.238-1.8a.336.336,0,0,1-.457.026c-.065-.059-.033-.145.047-.189a.856.856,0,0,1,.171-.052.712.712,0,0,1,.172.031C74.409,65.96,74.455,66.042,74.395,66.108ZM75.631,69.5c-.009.22-.087.332-.2.314-.15-.024-.166-.139-.159-.262.009-.175.085-.284.2-.268A.181.181,0,0,1,75.631,69.5Zm1.054-.352c-.132.013-.242-.1-.253-.278-.009-.133.014-.259.176-.3.132-.032.25.084.271.256S76.818,69.135,76.686,69.148Zm.96-9.248c-.008-.048.069-.145.125-.158s.129.054.241.109c-.092.082-.144.167-.2.169A.21.21,0,0,1,77.646,59.9Zm1.144,9.41a2.2,2.2,0,0,1-.25.034l-.215.023v.007a3.2,3.2,0,0,1-.431.04.268.268,0,0,1-.2-.1.264.264,0,0,1,.042-.216,1.016,1.016,0,0,1,.978-.458.341.341,0,0,1,.077.674Zm1.08.384a.337.337,0,0,1,.053-.445.554.554,0,0,0,.2-.489c-.016-.195.112-.277.3-.316.052-.01.094-.019.129-.029a.884.884,0,0,1-.066-.342H80.48l.007-.008s0,.005,0,.008a.513.513,0,0,1,.233.035c0-.008,0-.016,0-.025s0-.046,0-.069c.006-.122.034-.241.187-.251s.221.11.265.312c-.032.056-.065.193-.156.257l-.006,0c.042.048.083.1.126.144a.194.194,0,0,1,.033.16.3.3,0,0,1-.112.177.235.235,0,0,1-.184-.037l-.024-.017a.39.39,0,0,1-.149.351.405.405,0,0,0-.14.372.282.282,0,0,1-.241.33C80.109,69.866,79.947,69.829,79.869,69.694Zm.749,4.23a1.246,1.246,0,0,1-.241.292c-.061.053-.18.111-.239.088-.082-.032-.131-.138-.161-.173a.415.415,0,0,1,.531-.477A.171.171,0,0,1,80.619,73.924Zm.918-1.144a.727.727,0,0,1-.327.1c-.28.016-.5.093-.622-.141s0-.386.155-.55a5.678,5.678,0,0,0,.467-.566.459.459,0,0,1,.48-.163c.188.029.205.19.253.336C82.085,72.231,81.828,72.519,81.537,72.78Zm19.276-16.929c.25-.03.4.075.425.3s-.1.36-.345.382a.344.344,0,0,1-.414-.32C100.464,56.009,100.584,55.879,100.813,55.851Zm.119,5.7,0-.008a.46.46,0,0,0-.3.194.243.243,0,0,1-.209.079.28.28,0,0,1-.13-.189.313.313,0,0,1,.247-.4c.213-.051.3.024.39.319l.01,0v.009h-.006l.008-.009Zm-.761,3.141c-.185.006-.231-.127-.251-.275-.03-.21.036-.358.176-.364.189-.008.227.13.249.276C100.375,64.536,100.309,64.686,100.17,64.69Zm-.39-7.679a2.79,2.79,0,0,1,.466-.056.332.332,0,0,1,.393.311c.021.208-.082.325-.33.37-.059.011-.12.014-.18.02v0a2.339,2.339,0,0,1-.252.025.318.318,0,0,1-.356-.31A.306.306,0,0,1,99.78,57.011Zm-5.755-7.187c.077-.023.207.051.284.116a.923.923,0,0,1,.265.32.9.9,0,0,1,.057.433c-.014.128-.133.179-.266.13a1.134,1.134,0,0,1-.485-.8C93.9,49.985,93.947,49.847,94.025,49.824Zm-.688,11.7c.158.151.115.3-.1.348a2.388,2.388,0,0,1-.285.033l-.013.048c-.152-.037-.372-.027-.443-.12-.137-.18.1-.3.2-.424.151-.186.224-.187.422-.056A1.6,1.6,0,0,1,93.338,61.524Zm-.466,3.9c.011.182-.1.29-.3.3a.27.27,0,0,1-.324-.279c0-.182.106-.28.32-.287A.265.265,0,0,1,92.871,65.427Zm.072-5.455h-.012c.008.068.02.136.024.2.009.162-.036.3-.222.345a.409.409,0,0,1-.436-.069.378.378,0,0,1-.039-.45,1.792,1.792,0,0,1,.259-.328.326.326,0,0,1,.235-.1c.069.017.125.12.163.2A.629.629,0,0,1,92.944,59.972ZM90.232,46.5a.407.407,0,0,1,.126-.234,1.092,1.092,0,0,1,.948.02c.347.264.692.529,1.045.784a.4.4,0,0,1,.184.448.314.314,0,0,1-.355.234.916.916,0,0,0-.869.5.181.181,0,0,1-.022.027c-.1.106-.156.318-.341.229-.1-.049-.133-.234-.2-.358a.884.884,0,0,1,.2-.631c.114-.11.07-.232-.06-.321-.156-.107-.31-.216-.469-.318A.367.367,0,0,1,90.232,46.5Zm-2.5,3.471c.263-.029.367.057.418.351.006.034.008.068.012.1h0a1.966,1.966,0,0,1,.023.2c0,.243-.083.336-.327.365s-.352-.043-.4-.282a2.142,2.142,0,0,1-.039-.306C87.391,50.106,87.474,50,87.733,49.969Zm-.593,3.652c.028-.076.14-.124.171-.149.378-.043.595.161.538.434a.2.2,0,0,1-.318.144,1.2,1.2,0,0,1-.282-.206C87.191,53.784,87.119,53.677,87.14,53.621ZM84.5,58.578a1.7,1.7,0,0,1-.475-.362.428.428,0,0,1-.069-.378,1.709,1.709,0,0,1,.354-.47.241.241,0,0,1,.225-.012c.253.185.568.339.516.694.01.085.023.142.023.2A.374.374,0,0,1,84.5,58.578Zm.391,13.077c-.089-.194.127-.3.231-.428.135-.164.223-.173.394-.041.131.1.366.163.316.373s-.3.137-.456.186C85.207,71.731,84.989,71.868,84.89,71.655Zm1.1,1.287c-.033.076-.149.119-.18.142-.364.035-.572-.16-.525-.422a.2.2,0,0,1,.316-.153,1.115,1.115,0,0,1,.286.205C85.948,72.774,86.016,72.887,85.992,72.942Zm.957-7.288c-.147-.049-.195-.173-.1-.291a.973.973,0,0,1,.232-.21c.064-.04.174-.084.223-.056.065.037.089.141.106.172C87.387,65.586,87.182,65.732,86.949,65.654Zm.911,3.728c-.07.013-.142.016-.214.024v0a2.013,2.013,0,0,1-.249.025.313.313,0,0,1-.336-.287.307.307,0,0,1,.217-.365.18.18,0,0,1-.061-.128c-.008-.117.117-.2.276-.188s.269.1.26.217a.15.15,0,0,1-.011.032c.014,0,.029,0,.043-.005.241-.011.368.093.391.3S88.1,69.336,87.86,69.382Zm.321-12.5a1.568,1.568,0,0,1-.025-.2c-.018-.178-.084-.383.128-.491a.515.515,0,0,1,.59.092c.388.3.4.291.063.667a.987.987,0,0,1-.116.13A.384.384,0,0,1,88.181,56.879Zm.588,11.668c.159.013.266.108.252.223s-.142.183-.3.162c-.122-.017-.231-.059-.235-.2C88.485,68.611,88.611,68.534,88.77,68.548Zm.78,3.218a.6.6,0,0,0-.443.192.354.354,0,0,1-.509-.009.394.394,0,0,1,.046-.486,1.456,1.456,0,0,1,.312-.26,2.017,2.017,0,0,1,.411-.114l.009.041a1.627,1.627,0,0,1,.19.014c.2.039.27.122.263.321S89.757,71.76,89.55,71.765Zm1.276-2.2a.184.184,0,0,1-.273.121,1.185,1.185,0,0,1-.466-.7.348.348,0,0,1,.368-.389.358.358,0,0,1,.4.364,2.239,2.239,0,0,1-.008.264h.017A1.84,1.84,0,0,1,90.826,69.566Zm.236-12.79c-.156.149-.31.111-.367-.093a1.769,1.769,0,0,1-.034-.27L90.61,56.4c.038-.144.027-.347.124-.421.185-.142.316.076.45.168.215.147.217.222.06.418A2.125,2.125,0,0,1,91.062,56.776Zm.625,16.113c-.218.019-.3-.069-.337-.373h-.01l0-.008h.006l-.009.008.009-.008s0,.005,0,.008a.461.461,0,0,0,.324-.149.245.245,0,0,1,.219-.048.278.278,0,0,1,.1.206A.314.314,0,0,1,91.687,72.889ZM92.105,56.5a.344.344,0,0,1,.388-.365.357.357,0,0,1,.379.414.352.352,0,0,1-.409.383C92.211,56.913,92.089,56.765,92.105,56.5Zm.449,13.661c-.188-.019-.205-.162-.2-.309,0-.212.089-.35.227-.335.184.021.21.159.206.309C92.78,70.035,92.693,70.171,92.554,70.157Zm-.238-1.265a.174.174,0,0,1-.1-.278,1.135,1.135,0,0,1,.226-.265c.065-.054.179-.115.242-.094.083.027.137.132.169.165A.414.414,0,0,1,92.316,68.892Zm.4-1.419c-.249.028-.4-.083-.42-.31a.322.322,0,0,1,.327-.37.35.35,0,0,1,.421.32C93.07,67.325,92.96,67.446,92.715,67.474Zm1.37-.787c-.007.207-.09.294-.3.324s-.333-.018-.389-.214a.761.761,0,0,0-.336-.465.354.354,0,0,1-.105-.516.463.463,0,0,1,.588-.056,1.485,1.485,0,0,1,.334.26,2.688,2.688,0,0,1,.234.442l-.05.021A1.408,1.408,0,0,1,94.085,66.686Zm.546-4.624c-.249.03-.4-.079-.423-.3a.323.323,0,0,1,.318-.375c.254-.036.405.063.438.285S94.88,62.033,94.631,62.063Zm.36,2.519c.023-.159.174-.167.308-.179s.259,0,.284.144c.01.06-.048.143-.1.195-.035.036-.111.036-.178.054-.064-.007-.151.007-.2-.028A.253.253,0,0,1,94.991,64.582Zm.8,8.425a.426.426,0,0,1-.467.045c-.048-.046-.09-.164-.062-.2a.993.993,0,0,1,.26-.179,1.021,1.021,0,0,1,.29.127C95.841,72.829,95.825,72.954,95.786,73.006Zm.289-14.075c0-.16-.045-.319-.055-.479-.016-.259.084-.366.342-.387a.311.311,0,0,1,.389.305c.019.113.011.23.03.343.038.227.119.291.357.3a.978.978,0,0,1,.859.647c.028.084.068.2.137.229a.592.592,0,0,1,.324.606c0,.046.01.091.016.137h.012a3.059,3.059,0,0,1,.045.41c0,.213-.167.292-.34.163-.379-.283-.749-.576-1.121-.867-.036-.028-.08-.073-.081-.11-.007-.37-.313-.534-.572-.7A.671.671,0,0,1,96.075,58.931Zm.581,4.978c.2-.023.337.041.336.169,0,.169-.139.193-.25.21-.227.027-.363-.037-.361-.165C96.385,63.956,96.517,63.925,96.656,63.909Zm.291,2.262a.575.575,0,0,1-.074-.225.4.4,0,0,0-.234-.317.331.331,0,0,1-.2-.425.317.317,0,0,1,.2-.161c.051-.011.133.071.187.125a.213.213,0,0,1,.039.129.41.41,0,0,0,.26.375c.093.044.147.161.215.241a1.145,1.145,0,0,1-.071.256A.183.183,0,0,1,96.947,66.171Zm.3,5.194c-.016-.064.052-.159.106-.221.031-.036.111-.032.176-.047.055.005.129-.009.17.02.06.042.136.116.134.175,0,.166-.155.18-.289.2S97.283,71.5,97.25,71.364Zm1.58,2.391a1.113,1.113,0,0,1-.272-.13.547.547,0,0,0-.427-.14.308.308,0,0,1-.365-.213.32.32,0,0,1,.106-.4.408.408,0,0,1,.476-.022.961.961,0,0,0,.654.227c.168,0,.271.17.263.355S99.145,73.727,98.83,73.755Zm1.229-1.959a.983.983,0,0,1-.589.5c-.225.022-.354-.06-.4-.255a.32.32,0,0,1,.263-.416,1.942,1.942,0,0,1,.251-.029v-.009a1.877,1.877,0,0,1,.286-.028A.179.179,0,0,1,100.059,71.8Zm1.065-3.222a.333.333,0,0,1-.282-.054.635.635,0,0,0-.426-.144c-.276,0-.447-.206-.634-.36a.157.157,0,0,1,.1-.265.743.743,0,0,0,.536-.3.17.17,0,0,1,.307.061.8.8,0,0,0,.4.581c.06.04.078.136.13.235C101.217,68.41,101.2,68.538,101.124,68.574Zm1.281-3.292a.36.36,0,0,1-.449-.3,2.285,2.285,0,0,1-.032-.262h-.017a1.86,1.86,0,0,1-.015-.337.183.183,0,0,1,.252-.159,1.194,1.194,0,0,1,.566.62A.347.347,0,0,1,102.405,65.282Zm.686-2.657a1.569,1.569,0,0,1-.19.014c-.208-.009-.286-.081-.309-.279s.026-.3.229-.338a.592.592,0,0,0,.41-.255.354.354,0,0,1,.505-.065.394.394,0,0,1,.028.487,1.463,1.463,0,0,1-.269.3,2.032,2.032,0,0,1-.389.172Zm.488,7.5a.322.322,0,0,1,.317-.374c.254-.036.407.062.438.282s-.08.335-.315.369C103.763,70.437,103.6,70.336,103.579,70.122Zm.647.982a.94.94,0,0,1-.14.034.919.919,0,0,1-.175-.006.215.215,0,0,1-.116-.068c-.07-.09-.034-.172.051-.233.137-.1.421-.081.485.033S104.34,71.057,104.226,71.1Zm.038-3.539a.443.443,0,0,1-.476.047,1.9,1.9,0,0,1-.382-.259.25.25,0,0,1-.088-.2c.015-.059.106-.118.176-.143a1.327,1.327,0,0,1,.286-.036v.009l.18-.019a.35.35,0,0,1,.3.6Zm9.816-13.171a.182.182,0,0,1,.066-.1.143.143,0,0,1,.214.051c.087.121.062.366-.044.418s-.179,0-.219-.1a.783.783,0,0,1-.027-.121A.761.761,0,0,1,114.081,54.393Zm-8.8,9.686c.055-.006.119.069.223.138-.1.07-.167.146-.222.14s-.146-.089-.146-.139S105.219,64.085,105.276,64.079Zm-.059,7.6a.322.322,0,0,1-.394-.3c-.028-.222.1-.362.342-.386s.4.086.414.314S105.474,71.663,105.217,71.684Zm.14-6.694c-.159.013-.282-.062-.29-.176s.1-.205.264-.21c.123,0,.238.02.27.16C105.627,64.878,105.516,64.976,105.357,64.989Zm1.1,2.968a.968.968,0,0,1-.2.242c-.057.049-.16.108-.212.088-.069-.027-.11-.127-.131-.154-.025-.317.156-.492.4-.448C106.471,67.712,106.537,67.827,106.461,67.957Zm.549-8.275a2.053,2.053,0,0,1-.256.311.162.162,0,0,1-.292-.068,1.115,1.115,0,0,1-.021-.224h0c0-.056-.013-.113-.013-.169a.232.232,0,0,1,.173-.264.353.353,0,0,1,.363.047A.3.3,0,0,1,107.009,59.682Zm.608,10.7a.324.324,0,0,1-.4-.295c-.029-.221.1-.363.34-.389s.4.084.416.311S107.874,70.364,107.617,70.385Zm2.017-12.029a.431.431,0,0,1-.442-.043.368.368,0,0,1-.069-.445,2.482,2.482,0,0,1,.3-.387.2.2,0,0,1,.357.071,1.374,1.374,0,0,1,.035.271h0c.008.068.02.136.023.2A.281.281,0,0,1,109.634,58.356Zm1.308,12.965c-.021.066-.133.106-.156.122-.377.047-.6-.168-.541-.436a.2.2,0,0,1,.3-.145,1.2,1.2,0,0,1,.315.225A.286.286,0,0,1,110.942,71.321Zm1.524-3.71c0-.165.124-.2.265-.222.2-.025.341.034.345.159.006.168-.127.2-.213.213C112.612,67.795,112.469,67.734,112.466,67.61Zm1.318,1.068a4.024,4.024,0,0,1-.674.07c-.054,0-.148-.1-.154-.153a.235.235,0,0,1,.124-.179,1.4,1.4,0,0,1,.324-.07,1.56,1.56,0,0,1,.346,0,.232.232,0,0,1,.155.154A.217.217,0,0,1,113.784,68.678Zm.011-7.12c-.207.018-.326-.072-.341-.257s.089-.294.295-.306a.282.282,0,0,1,.332.274C114.087,61.438,113.984,61.542,113.8,61.558Zm.883-.928a2.286,2.286,0,0,1-.386.034.272.272,0,0,1-.315-.266c-.011-.172.077-.265.283-.3.049-.007.1-.008.149-.012h0a2.058,2.058,0,0,1,.208-.014.261.261,0,0,1,.284.264A.253.253,0,0,1,114.678,60.63Zm1.12-6.911c-.054.009-.13-.046-.177-.091s-.03-.1-.042-.145c0-.054-.012-.123.016-.154.049-.055.128-.124.188-.119.129.01.147.13.154.238S115.95,53.694,115.8,53.719Zm1.321,8.7c-.156,0-.181-.116-.191-.19-.024-.219.036-.341.15-.34.153,0,.185.113.2.236C117.293,62.3,117.234,62.416,117.119,62.416Zm.329-7.385c-.167.014-.276-.042-.272-.148.006-.14.12-.155.212-.167.188-.017.3.04.293.145C117.673,55,117.563,55.021,117.448,55.031Zm.214-1.061a.263.263,0,0,1-.166.128c-.043.008-.108-.062-.15-.108a.174.174,0,0,1-.028-.107.337.337,0,0,0-.2-.315c-.075-.039-.117-.136-.171-.2a.949.949,0,0,1,.065-.209.151.151,0,0,1,.264.005.473.473,0,0,1,.055.187.325.325,0,0,0,.184.268A.272.272,0,0,1,117.662,53.97Zm.919.689c-.1.006-.213-.008-.229-.126-.007-.049.044-.117.087-.158s.092-.026.148-.04c.052.007.125,0,.165.028a.207.207,0,0,1,.088.156C118.816,54.651,118.691,54.653,118.58,54.659Zm1.968-1.1a.382.382,0,0,1-.485.031,1.21,1.21,0,0,1-.267-.223,2.2,2.2,0,0,1-.18-.37l.042-.016a1.207,1.207,0,0,1-.013-.17c.011-.17.082-.239.254-.259s.274.023.314.186a.626.626,0,0,0,.263.392A.291.291,0,0,1,120.549,53.557Z" fill="#1a1311"/>
          <path id="Path_143" data-name="Path 143" d="M119.193,47.05a4.116,4.116,0,0,0,4.15,4.082,4.216,4.216,0,0,0,1.243-.186c.026-.106.11-.169.263-.193.058-.009.118-.01.177-.014v0l.1-.01a4.143,4.143,0,0,0,1.673-1.425c-.107-.076-.264-.137-.22-.294.05-.182.247-.1.381-.141a.407.407,0,0,0,.094,0,4,4,0,0,0,.438-1.817c0-.033,0-.064,0-.1a4.928,4.928,0,0,1-.52-.445.438.438,0,0,1-.071-.312c.008-.116.119-.167.237-.177l.214-.02a4.156,4.156,0,0,0-8.157,1.051Zm7.295.819c.029-.062.126-.094.153-.112.3-.02.466.147.42.361a.166.166,0,0,1-.265.118.908.908,0,0,1-.23-.177C126.52,48.008,126.467,47.913,126.488,47.869Zm-2.074-3.361a.271.271,0,0,1,.187.1c.024.036-.007.129-.044.173a6.563,6.563,0,0,1-.445.487.25.25,0,0,1-.2.071c-.067-.025-.108-.113-.132-.141A.781.781,0,0,1,124.414,44.508Z" fill="#1a1311"/>
        </g>
      </g>
      <path id="Color_Overlay" data-name="Color Overlay" d="M557.87,1842.9a.77.77,0,0,1-.215-.6.39.39,0,0,0-.157-.292.673.673,0,0,1-.321-.471.262.262,0,0,0-.277-.223.388.388,0,0,0-.418.206.394.394,0,0,0,.142.461c.158.123.325.236.48.363.23.188.265.333.123.553l-10.5-.031a.437.437,0,0,0,.014-.072.457.457,0,0,1,.2-.338.927.927,0,0,0,.161-.209c.026-.273-.048-.385-.225-.424s-.34.022-.365.165a.8.8,0,0,1-.311.517.314.314,0,0,0-.073.359l-1.286,0a.16.16,0,0,0-.133-.182c-.054-.012-.133.041-.181.085a.167.167,0,0,0-.037.1l-1.645,0-.682-2.459a.671.671,0,0,0,.317-.4.534.534,0,0,1,.2-.338.277.277,0,0,0,.1-.231c-.022-.067-.135-.105-.2-.152-.1.027-.19.027-.236.071a.79.79,0,0,1-.4.226l-.625-2.248.553,0a.907.907,0,0,0-.114.13c-.04.057-.083.145-.061.2a.23.23,0,0,0,.185.095.489.489,0,0,1,.373.13.232.232,0,0,0,.205.04c.052-.026.075-.118.095-.185a.409.409,0,0,0-.009-.139h-.014c0-.056-.006-.113-.013-.168a.576.576,0,0,0-.019-.1l2.748.008a.305.305,0,0,0,.026.156.142.142,0,0,0,.2.083.184.184,0,0,0,.081-.088.666.666,0,0,0,.033-.147v0l3.57.011a.178.178,0,0,0,.066.233c.353.276.712.547,1.073.814.175.13.339.058.346-.153a3.024,3.024,0,0,0-.043-.41h-.01c-.015-.137-.027-.275-.049-.41a.5.5,0,0,0-.018-.07l19.6.058c0,.015,0,.029,0,.045a.359.359,0,0,0,.436.355.339.339,0,0,0,.329-.4l9.269.027s0,.006,0,.011c0,.1.115.156.282.139.107-.009.2-.039.216-.148l1.772.005-1.319,4.487a.3.3,0,0,0-.085.062.359.359,0,0,0-.046.383l-.173.585Zm12.776-1.474a1.144,1.144,0,0,0-.236.3.627.627,0,0,0-.071.322.274.274,0,0,0,.155.2.313.313,0,0,0,.238-.093,1.51,1.51,0,0,0,.26-.326,1.586,1.586,0,0,0,.105-.313c-.075-.072-.133-.174-.216-.2a.089.089,0,0,0-.022,0A.4.4,0,0,0,570.645,1841.422Zm-19.364.421a.3.3,0,0,0,.308.345.286.286,0,0,0,.323-.3.292.292,0,0,0-.29-.36l-.036,0C551.4,1841.529,551.294,1841.637,551.281,1841.843Zm-1.39-.048c.01.1.038.2.174.212.112.013.2-.1.186-.237-.008-.108-.037-.21-.172-.228a.055.055,0,0,0-.017,0C549.966,1841.541,549.888,1841.652,549.892,1841.8Zm23.114-.374c-.161.041-.183.167-.174.3.013.175.123.292.255.277s.213-.149.191-.321c-.019-.153-.114-.26-.227-.26A.2.2,0,0,0,573.006,1841.422Zm-27.726-.427a1.5,1.5,0,0,0-.022.248h.008a1.607,1.607,0,0,0-.014.217.294.294,0,0,0,.334.294.28.28,0,0,0,.3-.3.858.858,0,0,0-.363-.585.2.2,0,0,0-.082-.018A.162.162,0,0,0,545.279,1840.994Zm30.854.479a.271.271,0,0,0,.283.218c.146,0,.3-.007.374-.157a.369.369,0,0,0-.039-.422,1.314,1.314,0,0,0-.314-.279c-.077-.049-.218-.1-.279-.062s-.08.17-.1.264a.348.348,0,0,0,.022.135h0C576.095,1841.271,576.106,1841.374,576.133,1841.473Zm1.043-.218c.01.17.128.307.251.279.167-.036.175-.167.175-.3-.024-.129-.061-.255-.23-.262h-.007C577.248,1840.973,577.167,1841.1,577.176,1841.255Zm-24.715-.877a.544.544,0,0,0-.509.264,1.326,1.326,0,0,1-.163.181.393.393,0,0,0,0,.581.458.458,0,0,0,.6-.112.645.645,0,0,1,.437-.263.3.3,0,0,0,.277-.339.332.332,0,0,0-.352-.317l-.074,0C552.6,1840.371,552.533,1840.378,552.461,1840.379Zm19.4.47c-.162.031-.2.152-.193.286a.269.269,0,0,0,.24.292c.133,0,.224-.136.209-.307s-.106-.275-.222-.275A.218.218,0,0,0,571.865,1840.848Zm-8.29-.93c-.372.033-.743.068-1.112.12-.238.031-.318.126-.306.348a6.657,6.657,0,0,0,.079.717c.04.24.135.31.4.294.229-.014.456-.045.684-.07v.014c.287-.03.576-.049.859-.1.068-.011.117-.118.176-.182-.068-.051-.133-.14-.208-.148a2.406,2.406,0,0,0-.431.024c-.147.009-.326.025-.342-.158s.173-.185.311-.2.29-.017.43-.048.223-.175.13-.253c-.182-.152-.343-.361-.616-.362Zm-6.447,1.243c-.008.114.1.2.263.212s.281-.076.275-.191-.126-.2-.282-.2h-.008C557.236,1840.984,557.137,1841.055,557.129,1841.161Zm-13.979.143a.271.271,0,0,0,.167-.339v0s.005,0,.005-.007c.014-.049-.03-.122-.07-.167a1.039,1.039,0,0,0-.166-.116,1.582,1.582,0,0,1-.247-.2c-.091-.1-.051-.194.087-.224a1.14,1.14,0,0,0,.23-.038.211.211,0,0,0,.1-.149c0-.038-.057-.1-.1-.121a.379.379,0,0,0-.4.106,2.2,2.2,0,0,1-.226.249.679.679,0,0,0,.037.753.354.354,0,0,0,.166.047.846.846,0,0,0,.152-.006C542.923,1841.237,543.029,1841.331,543.15,1841.3Zm4.826-.475a.491.491,0,0,0-.17.048.166.166,0,0,0,.007.3.555.555,0,0,0,.167.033c.239-.019.356-.105.342-.229-.013-.1-.105-.163-.253-.163A.874.874,0,0,0,547.976,1840.829Zm6.682-.523c-.026.051.017.156.058.217a1.053,1.053,0,0,0,.235.25.613.613,0,0,0,.281.113.254.254,0,0,0,.206-.1.257.257,0,0,0-.046-.218,1.355,1.355,0,0,0-.254-.274,1.579,1.579,0,0,0-.267-.142C554.793,1840.206,554.692,1840.239,554.658,1840.307Zm-9.95-.181c-.007.212.079.3.334.324a1.669,1.669,0,0,0,.349,0c.193-.023.269-.125.268-.322,0-.176-.07-.255-.265-.292a1.669,1.669,0,0,0-.19-.015v0c-.042,0-.085-.008-.127-.009h-.009C544.813,1839.809,544.715,1839.894,544.709,1840.126Zm32.59-.067a.266.266,0,0,0,.292.283c.221,0,.346-.11.336-.3a.261.261,0,0,0-.291-.266h-.014C577.407,1839.78,577.3,1839.878,577.3,1840.059Zm-23.66-.4a.34.34,0,0,0-.139.123c-.045.074-.119.191-.091.232a.375.375,0,0,0,.251.134c.187.016.3-.106.336-.369-.018-.033-.042-.15-.112-.191a.065.065,0,0,0-.033-.008A.659.659,0,0,0,553.639,1839.656Zm11.667-.266a.327.327,0,0,0-.319.4c.035.207.176.3.412.275s.369-.162.339-.387a.313.313,0,0,0-.343-.3A.626.626,0,0,0,565.305,1839.39Zm-12.367-.433-.216.022,0,.014c-.072.007-.144.014-.216.023-.154.02-.283.077-.317.236a.364.364,0,0,0,.156.4c.125.089.25.182.383.259a.417.417,0,0,0,.475-.005.509.509,0,0,0,.12-.335,1.269,1.269,0,0,0-.047-.374.274.274,0,0,0-.289-.239Zm14.454-.437c-.151.011-.309.02-.355.193a.313.313,0,0,0,.168.385.326.326,0,0,1,.176.278c.022.241.243.331.4.463.077.065.167.013.23-.059.141-.157.291-.309.425-.472a.241.241,0,0,0,.063-.194.258.258,0,0,0-.188-.1c-.308-.031-.309-.026-.39-.3-.051-.175-.1-.212-.294-.212-.059,0-.118.007-.177.012v0Zm5.087.12c-.274.081-.422.361-.223.551.243.23.481.541.9.418.089-.01.162-.011.232-.025a.345.345,0,0,0,.214-.6,1.155,1.155,0,0,0-.811-.393A1.058,1.058,0,0,0,572.479,1838.64Zm-18.088.752c0,.142.107.192.23.212a.246.246,0,0,0,.3-.156c.017-.114-.088-.213-.246-.229l-.04,0h0C554.5,1839.218,554.39,1839.288,554.391,1839.392Zm-7.152-1.593v.008l-.359.038a.345.345,0,0,0-.2.585.445.445,0,0,0,.14.107.445.445,0,0,1,.247.427,1.081,1.081,0,0,0,.033.307.419.419,0,0,0,.16.212,1.144,1.144,0,0,0,.855-.13.766.766,0,0,1,.507-.292.182.182,0,0,0,.182-.215c-.021-.122-.128-.161-.246-.153s-.263.031-.394.05-.247.062-.33-.056c-.1-.142.017-.23.11-.322l.024-.025a.314.314,0,0,0,.065-.381.336.336,0,0,0-.333-.184h-.024C547.527,1837.78,547.383,1837.792,547.239,1837.8Zm22.755.535c-.183.014-.26.075-.281.232a1.815,1.815,0,0,0,0,.2h.005c0,.047,0,.094.012.141.035.221.118.29.327.275s.285-.1.282-.318a1.566,1.566,0,0,0-.036-.337.22.22,0,0,0-.251-.194Zm-15.67-.134a1.387,1.387,0,0,0-.322.438c-.052.172.184.208.294.3.054.046.109.115.169.121a.975.975,0,0,0,.444-.019c.093-.038.132-.19.161-.237a1.067,1.067,0,0,0-.583-.644l-.028,0A.2.2,0,0,0,554.323,1838.2Zm25.847-.036c-.211.012-.317.114-.306.3s.129.282.336.266.308-.13.291-.312a.26.26,0,0,0-.29-.252h-.031Zm-25.078.353c.012.144.122.183.245.2.159.017.284-.058.292-.171s-.1-.205-.261-.216h-.027C555.2,1838.327,555.086,1838.406,555.093,1838.516Zm-11.535-.371c-.009.107-.009.229.117.257.058.014.148-.042.2-.089.031-.026.027-.1.039-.15,0-.05.008-.114-.019-.149-.039-.051-.105-.116-.16-.117h0C543.585,1837.9,543.569,1838.028,543.558,1838.146Zm28.9-3.6a.344.344,0,0,0,0-.053c-.014-.171-.127-.293-.259-.27-.167.029-.193.153-.189.287a.218.218,0,0,0,0,.034l-31.5-.094-3.126-11.252a.736.736,0,0,0,.056-.1.355.355,0,0,0-.045-.313,1.077,1.077,0,0,0-.171-.168l-2.386-8.583c.057-.005.113-.012.169-.022a.279.279,0,0,0-.041-.554,1.613,1.613,0,0,0-.206.014v0l-.078.005-.374-1.349a5.336,5.336,0,0,0,2.057-1.279.962.962,0,0,0,.175.126.165.165,0,0,0,.265-.117.271.271,0,0,0-.153-.317l.03-.033,3.868,2.11c-.016.039-.028.075-.037.1.014.2.107.288.271.294a.4.4,0,0,0,.3-.1l9.709,5.3,9.446-16.354a5.391,5.391,0,0,0,3.493.011l9.347,16.41,11.791-6.342a.143.143,0,0,0,.008.07c.031.063.148.085.222.122.092-.042.182-.055.22-.106a.747.747,0,0,1,.548-.323.144.144,0,0,0,.067-.264.5.5,0,0,1-.051-.046l1.357-.729a5.324,5.324,0,0,0,2.018,1.5.5.5,0,0,0-.106-.006c-.2.015-.3.113-.282.287a.286.286,0,0,0,.337.275.267.267,0,0,0,.281-.3.273.273,0,0,0-.093-.207c.069.027.139.055.208.08l-6.34,22.284Zm-24.187-.58c.03.035.078.141.16.174.058.023.177-.034.239-.087a1.294,1.294,0,0,0,.241-.292.171.171,0,0,0-.109-.27.447.447,0,0,0-.126-.019h0A.417.417,0,0,0,548.266,1833.965Zm18.58-.451a1.155,1.155,0,0,0,.273.131c.315-.028.427-.13.435-.325s-.094-.359-.262-.356a.961.961,0,0,1-.653-.23.408.408,0,0,0-.475.022.32.32,0,0,0-.107.4.308.308,0,0,0,.365.214.553.553,0,0,1,.066,0A.577.577,0,0,1,566.845,1833.514Zm-3.3-.786c-.028.037.014.155.061.2a.428.428,0,0,0,.468-.043c.039-.052.055-.177.021-.208a.324.324,0,0,0-.55.049Zm-9.968-.218c-.049.262.158.458.522.424.032-.023.148-.066.182-.141.023-.055-.045-.168-.1-.229a1.119,1.119,0,0,0-.286-.207.269.269,0,0,0-.123-.033h0A.2.2,0,0,0,553.579,1832.511Zm6.388-.275a.459.459,0,0,1-.326.148c.039.3.119.392.337.374a.314.314,0,0,0,.306-.363.276.276,0,0,0-.1-.206.115.115,0,0,0-.052-.011A.282.282,0,0,0,559.967,1832.235Zm-10.464-.776a5.6,5.6,0,0,1-.468.564c-.16.164-.272.327-.157.551s.342.158.622.142a.723.723,0,0,0,.327-.1c.293-.26.551-.548.41-.985-.049-.147-.065-.307-.253-.337a.818.818,0,0,0-.121-.01h0A.418.418,0,0,0,549.5,1831.46Zm10.138.924s0-.005,0-.008h-.006l0,.008.009-.008-.009.008Zm8.236-.9v.009a1.905,1.905,0,0,0-.25.027.321.321,0,0,0-.265.415c.045.2.174.277.4.256a.982.982,0,0,0,.59-.5.18.18,0,0,0-.188-.232h-.027A2.349,2.349,0,0,0,567.878,1831.486Zm-10.626-.424a1.467,1.467,0,0,0-.313.259.4.4,0,0,0-.048.486.355.355,0,0,0,.509.011.6.6,0,0,1,.445-.191c.207,0,.271-.092.279-.3s-.058-.283-.262-.322a1.668,1.668,0,0,0-.19-.014c0-.013-.006-.028-.009-.041A2.021,2.021,0,0,0,557.251,1831.062Zm-3.834.013c-.105.127-.321.233-.233.428.068.148.2.126.324.1a.664.664,0,0,1,.161-.014c.161-.049.4.04.457-.184s-.185-.273-.315-.374a.347.347,0,0,0-.2-.093C553.549,1830.944,553.49,1830.987,553.417,1831.075Zm20.044-.167c-.247.024-.37.164-.343.386a.32.32,0,0,0,.392.3c.258-.019.383-.145.364-.369a.316.316,0,0,0-.348-.319C573.505,1830.9,573.484,1830.906,573.461,1830.908Zm-7.809.121c-.054.061-.122.157-.107.221.033.138.173.138.3.124s.284-.029.289-.194c0-.059-.074-.133-.133-.176a.215.215,0,0,0-.119-.02h-.052C565.763,1831,565.682,1830.993,565.652,1831.029Zm12.891-.1c-.065.267.163.482.54.437.023-.016.134-.056.155-.122a.28.28,0,0,0-.082-.233,1.192,1.192,0,0,0-.314-.226.233.233,0,0,0-.106-.028A.2.2,0,0,0,578.543,1830.931Zm-6.4-.2c-.086.06-.122.141-.052.231a.206.206,0,0,0,.116.069.559.559,0,0,0,.123.006h.051a.82.82,0,0,0,.139-.033c.114-.047.172-.125.107-.24a.3.3,0,0,0-.25-.1A.411.411,0,0,0,572.144,1830.736Zm.052-1.083a.323.323,0,0,0-.319.373c.024.214.183.315.439.279.236-.033.346-.162.317-.369a.31.31,0,0,0-.339-.29A.642.642,0,0,0,572.2,1829.653Zm3.665-.036c-.245.025-.37.167-.341.388a.323.323,0,0,0,.4.3c.256-.02.38-.147.361-.372a.315.315,0,0,0-.346-.315A.621.621,0,0,0,575.861,1829.617Zm-15.213.1c0,.147.016.29.2.309.139.015.227-.12.23-.334,0-.149-.022-.287-.205-.31h-.022C560.731,1829.383,560.651,1829.518,560.649,1829.719Zm-11.791-1.468c-.035.009-.077.018-.129.029-.193.038-.32.12-.305.315a.551.551,0,0,1-.2.488.337.337,0,0,0-.055.445c.077.135.238.173.449.126a.283.283,0,0,0,.242-.33.4.4,0,0,1,.141-.371.392.392,0,0,0,.149-.352l.024.017a.229.229,0,0,0,.185.038.308.308,0,0,0,.112-.176.2.2,0,0,0-.033-.16c-.042-.047-.082-.1-.124-.144l.005,0c.091-.063.124-.2.157-.256-.044-.2-.1-.322-.265-.312s-.183.128-.188.25c0,.022,0,.046,0,.068a.225.225,0,0,1,0,.025.523.523,0,0,0-.232-.036v-.007l-.007.008h.007A.9.9,0,0,0,548.858,1828.251Zm-5.284,1.12c-.007.123.008.238.158.262.112.019.191-.093.2-.312a.181.181,0,0,0-.158-.216l-.024,0C543.65,1829.1,543.582,1829.209,543.574,1829.372Zm14.816-.518a1.186,1.186,0,0,0,.464.7.184.184,0,0,0,.273-.121,1.872,1.872,0,0,0,.038-.335l-.017,0a2.35,2.35,0,0,0,.009-.264.357.357,0,0,0-.383-.365h-.014A.349.349,0,0,0,558.39,1828.854Zm-2.868-.352a.175.175,0,0,0,.059.129.306.306,0,0,0-.218.364.314.314,0,0,0,.336.288,1.945,1.945,0,0,0,.248-.024v0c.071-.007.143-.01.213-.022.24-.046.34-.166.317-.375s-.149-.314-.391-.305l-.043.005a.132.132,0,0,0,.012-.031c.01-.114-.1-.206-.259-.218h-.026C555.624,1828.314,555.513,1828.391,555.521,1828.5Zm-9.484.418a.267.267,0,0,0-.043.216.27.27,0,0,0,.2.105,3.161,3.161,0,0,0,.43-.039v-.007l.216-.022a2.094,2.094,0,0,0,.25-.034.34.34,0,0,0-.075-.673l-.087,0h0A.993.993,0,0,0,546.037,1828.921Zm-1.125-.526c-.162.039-.185.165-.176.3.011.174.121.292.252.279s.214-.149.194-.32c-.018-.152-.113-.261-.226-.262A.193.193,0,0,0,544.912,1828.4Zm11.878.193c0,.145.112.187.235.2.157.022.285-.05.3-.161s-.092-.21-.251-.223l-.035,0h0C556.9,1828.406,556.789,1828.48,556.79,1828.588Zm3.962-.368a1.1,1.1,0,0,0-.228.265.173.173,0,0,0,.094.278.414.414,0,0,0,.543-.471c-.032-.033-.085-.138-.167-.165a.1.1,0,0,0-.03,0h0A.394.394,0,0,0,560.752,1828.22Zm20.957.06a1.449,1.449,0,0,0-.325.069.234.234,0,0,0-.124.178c.005.058.1.154.153.153a4.009,4.009,0,0,0,.674-.068.218.218,0,0,0,.122-.177.23.23,0,0,0-.156-.154.535.535,0,0,0-.12-.012C581.858,1828.27,581.781,1828.28,581.71,1828.28Zm-12.98-.933a.745.745,0,0,1-.537.3.156.156,0,0,0-.105.264c.186.154.356.359.633.362a.633.633,0,0,1,.426.145.336.336,0,0,0,.283.056c.072-.037.093-.165.132-.246-.052-.1-.07-.194-.13-.235a.807.807,0,0,1-.394-.583.156.156,0,0,0-.162-.134A.175.175,0,0,0,568.73,1827.347Zm5.5.7c.022.027.062.127.131.154.052.021.155-.039.212-.086a.989.989,0,0,0,.2-.242c.076-.13.011-.246-.142-.273a.392.392,0,0,0-.071-.006h0C574.348,1827.59,574.2,1827.76,574.225,1828.044Zm-31.96-.607-.063,0c-.1.017-.194.023-.278.046a.293.293,0,0,0-.2.405c.049.113.174.164.258.079a.89.89,0,0,1,.481-.249.177.177,0,0,0,.094-.149c-.007-.048-.079-.106-.135-.123a.343.343,0,0,0-.1-.012Zm38.774-.118c-.141.018-.269.056-.266.221,0,.123.145.185.4.152.086-.013.22-.045.213-.213,0-.106-.1-.165-.258-.166A.728.728,0,0,0,581.039,1827.32Zm-9.237-.406c-.07.023-.161.083-.176.141a.248.248,0,0,0,.088.2,1.871,1.871,0,0,0,.381.26.443.443,0,0,0,.477-.046.323.323,0,0,0,.079-.41.327.327,0,0,0-.383-.192l-.179.019v-.01A1.34,1.34,0,0,0,571.8,1826.914Zm-10.87-.248a.321.321,0,0,0-.328.369c.019.226.168.338.419.311s.356-.148.329-.359a.342.342,0,0,0-.359-.325A.465.465,0,0,0,560.932,1826.665Zm.337-.977a.353.353,0,0,0,.1.516.766.766,0,0,1,.335.466c.055.2.174.246.388.215s.292-.116.3-.323a1.323,1.323,0,0,0-.023-.205l.05-.021a2.692,2.692,0,0,0-.232-.443,1.489,1.489,0,0,0-.334-.261.462.462,0,0,0-.266-.078h0A.4.4,0,0,0,561.269,1825.688Zm3.684-.762a.317.317,0,0,0-.2.16.331.331,0,0,0,.2.426.4.4,0,0,1,.233.318.576.576,0,0,0,.073.226.183.183,0,0,0,.32,0,1.122,1.122,0,0,0,.072-.256c-.068-.08-.122-.2-.215-.242a.407.407,0,0,1-.258-.374.23.23,0,0,0-.038-.13c-.05-.05-.126-.125-.177-.125Zm-22.656.834c-.08.043-.113.13-.049.189a.338.338,0,0,0,.458-.024c.061-.066.015-.149-.067-.185a.661.661,0,0,0-.172-.032A.915.915,0,0,0,542.3,1825.76Zm-2.834-.377c-.214.008-.32.108-.314.292s.124.285.328.274.313-.123.3-.306a.261.261,0,0,0-.29-.26Zm1.184-.086c-.213.011-.318.112-.306.3s.129.281.334.266.309-.13.292-.311a.262.262,0,0,0-.291-.254Zm19.912.022a.27.27,0,0,0,.323.28c.206-.01.315-.118.3-.3a.262.262,0,0,0-.292-.266h-.015C560.665,1825.04,560.554,1825.137,560.558,1825.319Zm-5.161-.311a1,1,0,0,0-.233.209c-.1.118-.048.242.1.293.233.077.438-.068.462-.384-.016-.031-.041-.135-.105-.172a.08.08,0,0,0-.04-.009A.4.4,0,0,0,555.4,1825.007Zm14.875-.129a.36.36,0,0,0,.448.3.347.347,0,0,0,.307-.437,1.2,1.2,0,0,0-.564-.622.182.182,0,0,0-.252.158,1.856,1.856,0,0,0,.013.338l.017,0A2.29,2.29,0,0,0,570.271,1824.879Zm3.376-.366c-.161,0-.273.1-.265.209s.13.19.289.177.27-.111.245-.225c-.029-.132-.13-.162-.243-.162Zm-10.032-.23c-.133.011-.285.018-.308.177a.254.254,0,0,0,.112.187c.05.035.138.022.2.028.068-.017.143-.017.178-.053.05-.051.109-.135.1-.194-.02-.119-.114-.147-.219-.148Zm4.622.026c.019.149.064.281.249.275.139,0,.206-.154.176-.363-.021-.142-.059-.276-.233-.277h-.015C568.273,1823.95,568.208,1824.1,568.237,1824.308Zm5.212-.181a.2.2,0,0,0,.145.139c.055.006.119-.069.223-.14-.1-.066-.164-.138-.218-.139h-.005C573.537,1823.993,573.448,1824.078,573.448,1824.127Zm-8.473-.335c-.139.015-.272.046-.275.213,0,.127.133.192.36.166.112-.017.249-.04.251-.21,0-.111-.1-.173-.257-.174A.6.6,0,0,0,564.975,1823.792Zm-26.461-.583a.216.216,0,0,0-.158.266c.014.111.057.206.193.212.11,0,.185-.108.174-.251s-.089-.229-.189-.229Zm32.915-.643a2.053,2.053,0,0,0,.39-.171,1.51,1.51,0,0,0,.271-.3.4.4,0,0,0-.027-.487.354.354,0,0,0-.506.064.594.594,0,0,1-.41.253c-.2.035-.254.131-.23.338s.1.271.308.281a1.713,1.713,0,0,0,.19-.013C571.419,1822.54,571.424,1822.553,571.429,1822.567Zm13.823-.4c.009.074.035.19.191.191.115,0,.174-.12.158-.293-.013-.123-.044-.234-.2-.236h0C585.288,1821.831,585.229,1821.953,585.252,1822.17Zm-22.4-.908a.323.323,0,0,0-.319.374c.022.224.173.332.421.3s.367-.167.335-.392a.312.312,0,0,0-.34-.293A.794.794,0,0,0,562.852,1821.262Zm-1.834.018c-.1.125-.335.244-.2.424.071.093.291.084.443.121,0-.015.008-.031.013-.047a2.3,2.3,0,0,0,.285-.032c.218-.05.261-.2.1-.347a1.661,1.661,0,0,0-.222-.172.431.431,0,0,0-.212-.094C561.16,1821.132,561.1,1821.179,561.018,1821.28Zm7.848-.162a.312.312,0,0,0-.248.4.28.28,0,0,0,.129.189.246.246,0,0,0,.21-.078.463.463,0,0,1,.3-.193c-.068-.239-.141-.334-.28-.335A.465.465,0,0,0,568.866,1821.118Zm-26.474.494c.091.049.15.105.2.1s.112-.086.107-.127a.173.173,0,0,0-.132-.1C542.516,1821.479,542.47,1821.547,542.391,1821.612Zm39.685-.681c-.205.011-.311.12-.3.3s.133.275.34.258c.189-.016.292-.12.286-.288a.277.277,0,0,0-.3-.275Zm-12.821.507,0,.008.007-.01Zm0,.008h.006s0-.006,0-.009Zm-4.558-3.5c-.257.021-.358.128-.343.387.009.16.049.319.053.479a.67.67,0,0,0,.341.6c.258.169.564.333.569.7,0,.038.045.082.081.11.371.293.74.587,1.118.87.174.13.337.05.341-.162a3.034,3.034,0,0,0-.044-.41l-.013,0a1.182,1.182,0,0,1-.014-.137.6.6,0,0,0-.322-.607c-.069-.033-.109-.147-.137-.229a.978.978,0,0,0-.856-.65c-.238-.013-.319-.078-.356-.305-.02-.112-.012-.229-.03-.343-.036-.22-.13-.308-.327-.309Zm17.892,2.091c-.206.031-.3.123-.284.3a.271.271,0,0,0,.314.266,2.207,2.207,0,0,0,.385-.031.254.254,0,0,0,.224-.288.26.26,0,0,0-.283-.266,2.033,2.033,0,0,0-.209.013h0C582.69,1820.03,582.639,1820.03,582.591,1820.038Zm-21.741-.49a1.825,1.825,0,0,0-.261.328.379.379,0,0,0,.038.449.407.407,0,0,0,.436.071c.187-.043.231-.182.224-.345,0-.068-.016-.136-.024-.205h.013a.609.609,0,0,0-.028-.2c-.037-.076-.093-.179-.161-.2a.1.1,0,0,0-.023,0A.374.374,0,0,0,560.849,1819.547Zm13.943.29a.161.161,0,0,0,.292.069,1.954,1.954,0,0,0,.257-.31.3.3,0,0,0-.041-.368.354.354,0,0,0-.363-.049.231.231,0,0,0-.174.264c0,.057.008.113.013.169h0A1.147,1.147,0,0,0,574.792,1819.837Zm-28.69-.267c-.056.013-.133.109-.125.157a.209.209,0,0,0,.166.12c.055,0,.109-.085.2-.167-.1-.05-.174-.112-.226-.112Zm6.546-2.355a1.712,1.712,0,0,0-.355.469.429.429,0,0,0,.068.378,1.712,1.712,0,0,0,.473.364.374.374,0,0,0,.575-.328,1.964,1.964,0,0,0-.022-.2c.053-.355-.262-.508-.515-.695a.178.178,0,0,0-.1-.023A.2.2,0,0,0,552.648,1817.214Zm25.112.188a2.5,2.5,0,0,0-.3.386.367.367,0,0,0,.068.445.431.431,0,0,0,.442.044.282.282,0,0,0,.2-.327c0-.068-.015-.136-.023-.2h0a1.431,1.431,0,0,0-.035-.273.2.2,0,0,0-.185-.158A.237.237,0,0,0,577.76,1817.4Zm-9.173-.553a2.905,2.905,0,0,0-.467.054.306.306,0,0,0-.259.357.32.32,0,0,0,.356.312,2.368,2.368,0,0,0,.251-.026v0c.059-.005.121-.008.179-.019.249-.044.353-.161.332-.369a.327.327,0,0,0-.365-.313Zm-11.961-.806c-.211.107-.147.313-.129.491a1.521,1.521,0,0,0,.024.2.384.384,0,0,0,.64.2,1.006,1.006,0,0,0,.116-.13c.336-.374.327-.364-.061-.667a.6.6,0,0,0-.367-.149A.487.487,0,0,0,556.626,1816.043Zm3.82.322c-.017.27.105.418.356.433a.351.351,0,0,0,.409-.382.356.356,0,0,0-.376-.415h-.017A.343.343,0,0,0,560.446,1816.366Zm-1.369-.52c-.1.075-.087.277-.125.421l.05.013a1.675,1.675,0,0,0,.033.27c.057.2.211.242.366.094a2.005,2.005,0,0,0,.183-.21c.158-.2.156-.271-.059-.418-.1-.071-.2-.216-.327-.216h0A.193.193,0,0,0,559.077,1815.845Zm10.078-.1c-.229.026-.349.157-.335.361a.344.344,0,0,0,.413.32c.249-.021.373-.157.346-.382a.312.312,0,0,0-.341-.3h0A.634.634,0,0,0,569.156,1815.747Zm-28.353-2.407a.231.231,0,0,0-.209.265.335.335,0,0,1-.127.3.329.329,0,0,0-.13.329.286.286,0,0,1-.156.307c-.076.05-.107.161-.135.206.03.168.071.268.209.266s.153-.1.161-.2c0-.019,0-.038,0-.057.014-.24.013-.248.256-.289.159-.026.266-.09.26-.251a.459.459,0,0,1,.178-.4.277.277,0,0,0,.058-.365.255.255,0,0,0-.245-.127A.658.658,0,0,0,540.8,1813.341Zm44.932,1.321c-.092.011-.206.026-.212.166,0,.106.1.162.272.149.115-.01.225-.031.233-.168,0-.094-.082-.149-.232-.149Zm-3.239-.431a.189.189,0,0,0-.068.1.772.772,0,0,0-.011.151.861.861,0,0,0,.027.122c.04.1.11.151.219.1s.132-.3.046-.418a.163.163,0,0,0-.129-.081A.154.154,0,0,0,582.5,1814.231Zm4.29.093c-.044.042-.095.108-.087.158.015.119.123.132.229.127s.236-.008.259-.138a.206.206,0,0,0-.088-.157c-.04-.03-.112-.021-.164-.028C586.878,1814.3,586.816,1814.295,586.786,1814.323Zm-1.425-1.224a.894.894,0,0,0-.067.209c.054.067.094.166.17.2a.337.337,0,0,1,.2.316.177.177,0,0,0,.028.107c.042.046.106.115.149.108a.262.262,0,0,0,.167-.127.272.272,0,0,0-.149-.355.326.326,0,0,1-.183-.268.49.49,0,0,0-.053-.188.156.156,0,0,0-.135-.08A.152.152,0,0,0,585.361,1813.1Zm-29.7.228c-.031.024-.143.072-.171.148-.022.058.05.166.107.225a1.225,1.225,0,0,0,.283.207.2.2,0,0,0,.318-.143c.052-.249-.121-.441-.438-.442A.917.917,0,0,0,555.662,1813.327Zm28.285-.058c-.028.031-.012.1-.017.154.013.05.01.114.042.146s.123.1.176.091c.151-.024.148-.153.14-.271s-.024-.228-.154-.239h-.006C584.069,1813.15,583.995,1813.217,583.947,1813.269Zm4.306-.765c-.172.019-.243.088-.255.258a1.206,1.206,0,0,0,.012.17l-.041.015a2.2,2.2,0,0,0,.179.371,1.232,1.232,0,0,0,.266.224.382.382,0,0,0,.485-.031.29.29,0,0,0-.07-.427.631.631,0,0,1-.262-.393.219.219,0,0,0-.241-.192A.722.722,0,0,0,588.253,1812.5Zm-51.935-.753c-.048.171.144.229.249.316.137.114.21.109.326-.021.089-.1.271-.184.2-.347-.052-.125-.158-.11-.265-.1a.519.519,0,0,1-.132.009C536.565,1811.646,536.369,1811.569,536.317,1811.75Zm19.778-1.925c-.259.027-.342.136-.322.433a2.311,2.311,0,0,0,.038.306c.052.239.159.311.4.284s.33-.121.328-.364a1.724,1.724,0,0,0-.022-.2h0c0-.034-.006-.068-.012-.1-.044-.258-.129-.357-.327-.357A.817.817,0,0,0,556.095,1809.825Zm6.292-.127c-.078.024-.121.162-.145.2a1.132,1.132,0,0,0,.483.8c.133.05.251,0,.266-.13a.909.909,0,0,0-.056-.433.943.943,0,0,0-.264-.32.484.484,0,0,0-.252-.121A.123.123,0,0,0,562.387,1809.7Zm-3.656-3.57a.406.406,0,0,0-.126.234.365.365,0,0,0,.192.379c.159.1.313.212.468.32.13.088.173.211.059.32a.879.879,0,0,0-.2.63c.063.124.093.31.2.358.184.09.245-.121.342-.229a.168.168,0,0,0,.023-.027.915.915,0,0,1,.87-.5.314.314,0,0,0,.355-.232.4.4,0,0,0-.183-.448c-.354-.256-.7-.523-1.043-.787a.98.98,0,0,0-.52-.121A.747.747,0,0,0,558.731,1806.128Zm32.97,4.967a4.082,4.082,0,1,1,4.023-5.12l-.214.019c-.119.01-.23.06-.239.176a.447.447,0,0,0,.069.312,4.964,4.964,0,0,0,.519.446c0,.032,0,.064,0,.1a4.008,4.008,0,0,1-.443,1.816.364.364,0,0,1-.094,0c-.134.035-.331-.043-.382.14-.044.157.112.219.22.294a4.134,4.134,0,0,1-1.677,1.419l-.1.011v0c-.059,0-.119,0-.176.013-.152.024-.237.087-.264.194a4.252,4.252,0,0,1-1.234.183Zm3.307-3.366c-.026.018-.122.05-.152.113-.022.044.031.139.077.19a.926.926,0,0,0,.229.178.167.167,0,0,0,.266-.118c.044-.2-.1-.364-.372-.364Zm-2.85-2.569c.023.029.064.116.13.141a.247.247,0,0,0,.2-.069,6.479,6.479,0,0,0,.446-.486c.037-.044.068-.137.044-.173a.273.273,0,0,0-.186-.1h-.013A.786.786,0,0,0,592.158,1805.16Zm-59.945,5.757a4.116,4.116,0,0,1-4.137-4.094,4.013,4.013,0,0,1,.752-2.328c.291-.017.582-.035.872-.066.2-.021.266-.1.262-.28a5.684,5.684,0,0,0-.045-.592.525.525,0,0,0-.023-.1,4.191,4.191,0,0,1,2.344-.7,4.146,4.146,0,0,1,3.879,2.673.543.543,0,0,0-.225.02c-.077.03-.114.153-.14.191a.874.874,0,0,0,.461.545.222.222,0,0,0,.1-.009,3.97,3.97,0,0,1,.06.674,4.117,4.117,0,0,1-4.15,4.069Zm1.318-2.992c.024.028.065.117.131.142a.253.253,0,0,0,.2-.069c.157-.155.306-.319.447-.486.037-.045.068-.138.043-.174a.268.268,0,0,0-.186-.1h-.013A.788.788,0,0,0,533.53,1807.925Zm28.459-7.5a4.159,4.159,0,0,1-3.607-2.089.356.356,0,0,0,.031-.2.308.308,0,0,0-.273-.308,3.987,3.987,0,0,1-.289-1.5,4.151,4.151,0,1,1,4.149,4.094Zm1.192-3.664a.383.383,0,0,0,.767,0,.34.34,0,0,0-.365-.389h-.029A.345.345,0,0,0,563.18,1796.764Zm-.752-.758a.3.3,0,0,0,.316.339.287.287,0,0,0,.316-.306.291.291,0,0,0-.3-.353h-.027C562.545,1795.685,562.439,1795.8,562.428,1796.006Zm1.544-3.111c-.208.015-.311.122-.294.308s.136.275.344.255a.272.272,0,0,0,.28-.321.26.26,0,0,0-.288-.244Zm-2.6.168a.317.317,0,1,0,.625.1.291.291,0,0,0-.278-.374l-.047,0h0A.282.282,0,0,0,561.371,1793.063Z" fill="#c28230"/>
    </g>
    <text id="_4" data-name="4" transform="translate(562.492 1839.194)" fill="#191919" font-size="29.04" font-family="Helvetica" letter-spacing="0.1em"><tspan x="-8.075" y="0">4</tspan></text>
  </g>
</svg>
